# This file uses centimeters as units for non-parametric coordinates.

mtllib Planes2.mtl
g default
v -290.000000 -0.000000 290.000000
v -257.006775 -0.000000 290.000000
v -148.718445 -0.000000 290.000000
v -92.916824 -0.000000 290.000000
v 87.244644 -0.000000 290.000000
v 143.744888 -0.000000 290.000000
v 209.493469 -0.000000 290.000000
v 249.996689 -0.000000 290.000000
v 290.000000 -0.000000 290.000000
v -290.000000 -0.000000 196.288803
v -257.006775 -0.000000 196.288803
v 209.493469 -0.000000 196.288803
v 249.996689 -0.000000 196.288803
v 290.000000 -0.000000 196.288803
v -290.000000 -0.000000 146.024811
v -257.006775 -0.000000 146.024811
v 290.000000 -0.000000 182.934372
v 290.000000 0.000000 10.582091
v -290.000000 0.000000 -19.033821
v 249.996689 0.000000 -79.443291
v 290.000000 0.000000 -79.443291
v -290.000000 0.000000 -191.377274
v 249.996689 0.000000 -170.841324
v 290.000000 0.000000 -170.841324
v -290.000000 0.000000 -206.146271
v -257.006775 0.000000 -206.146271
v -148.718445 0.000000 -206.146271
v -92.916824 0.000000 -206.146271
v 87.244644 0.000000 -206.146271
v 143.744888 0.000000 -206.146271
v 209.493469 0.000000 -206.146271
v 249.996689 0.000000 -206.146271
v 290.000000 0.000000 -206.146271
v -290.000000 0.000000 -290.000000
v -257.006775 0.000000 -290.000000
v -148.718445 0.000000 -290.000000
v -92.916824 0.000000 -290.000000
v 87.244644 0.000000 -290.000000
v 143.744888 0.000000 -290.000000
v 209.493469 0.000000 -290.000000
v 249.996689 0.000000 -290.000000
v 290.000000 0.000000 -290.000000
v -257.006775 -0.000000 63.495506
v -290.000000 -0.000000 63.495495
v -257.006775 0.000000 -19.033804
v -257.006775 0.000000 -191.377274
v -148.718445 0.000000 -191.377274
v 143.744888 0.000000 -79.443291
v 209.493469 0.000000 -79.443291
v 209.493469 0.000000 -170.841324
v 143.744888 0.000000 -170.841324
v 209.493469 -0.000000 182.934372
v 249.996689 -0.000000 182.934372
v 249.996689 0.000000 10.582091
v 209.493469 0.000000 10.582091
v 143.744888 0.000000 10.582091
v -148.718445 -0.000000 196.288803
v -92.916824 -0.000000 196.288803
v 87.244644 -0.000000 196.288803
v 143.744888 -0.000000 196.288803
v 143.744888 -0.000000 182.934372
v -148.718445 -0.000000 146.024811
v -148.718445 -0.000000 63.495506
v -148.718445 0.000000 -19.033804
vt 0.000000 0.000000
vt 0.056885 0.000000
vt 0.056885 0.161571
vt 0.000000 0.161571
vt 0.243589 0.000000
vt 0.243589 0.161571
vt 0.339799 0.000000
vt 0.339799 0.161571
vt 0.650422 0.000000
vt 0.650422 0.161571
vt 0.747836 0.000000
vt 0.747836 0.161571
vt 0.861196 0.000000
vt 0.861196 0.161571
vt 0.931029 0.000000
vt 0.931029 0.161571
vt 1.000000 0.000000
vt 1.000000 0.161571
vt 0.056885 0.248233
vt 0.000000 0.248233
vt 0.243589 0.248233
vt 0.861196 0.184596
vt 0.747836 0.184596
vt 0.931029 0.184596
vt 1.000000 0.184596
vt 1.000000 0.481755
vt 0.931029 0.481755
vt 0.056885 0.390525
vt 0.000000 0.390525
vt 0.243589 0.390525
vt 0.747836 0.481755
vt 0.861196 0.481755
vt 0.861196 0.636971
vt 0.747836 0.636971
vt 0.931029 0.636971
vt 1.000000 0.636971
vt 0.000000 0.532817
vt 0.056885 0.532817
vt 0.056885 0.829961
vt 0.000000 0.829961
vt 0.931029 0.794554
vt 0.861196 0.794554
vt 1.000000 0.794554
vt 0.056885 0.855425
vt 0.000000 0.855425
vt 0.243589 0.829961
vt 0.243589 0.855425
vt 0.861196 0.855425
vt 0.747836 0.855425
vt 0.747836 0.794554
vt 0.931029 0.855425
vt 1.000000 0.855425
vt 0.056885 1.000000
vt 0.000000 1.000000
vt 0.243589 1.000000
vt 0.339799 0.855425
vt 0.339799 1.000000
vt 0.650422 1.000000
vt 0.650422 0.855425
vt 0.747836 1.000000
vt 0.861196 1.000000
vt 0.931029 1.000000
vt 1.000000 1.000000
vt 0.243589 0.532817
vn 0.000000 1.000000 0.000000
vn 0.000000 1.000000 0.000000
vn 0.000000 1.000000 0.000000
vn 0.000000 1.000000 0.000000
vn 0.000000 1.000000 0.000000
vn 0.000000 1.000000 0.000000
vn 0.000000 1.000000 0.000000
vn 0.000000 1.000000 0.000000
vn 0.000000 1.000000 0.000000
vn 0.000000 1.000000 0.000000
vn 0.000000 1.000000 0.000000
vn 0.000000 1.000000 0.000000
vn 0.000000 1.000000 0.000000
vn 0.000000 1.000000 0.000000
vn 0.000000 1.000000 0.000000
vn 0.000000 1.000000 0.000000
vn 0.000000 1.000000 0.000000
vn 0.000000 1.000000 0.000000
vn -0.000000 1.000000 0.000000
vn -0.000000 1.000000 0.000000
vn 0.000000 1.000000 0.000000
vn 0.000000 1.000000 0.000000
vn 0.000000 1.000000 0.000000
vn 0.000000 1.000000 0.000000
vn 0.000000 1.000000 0.000000
vn 0.000000 1.000000 0.000000
vn 0.000000 1.000000 0.000000
vn -0.000000 1.000000 0.000000
vn -0.000000 1.000000 0.000000
vn 0.000000 1.000000 0.000000
vn 0.000000 1.000000 0.000000
vn 0.000000 1.000000 0.000000
vn 0.000000 1.000000 0.000000
vn 0.000000 1.000000 0.000000
vn 0.000000 1.000000 0.000000
vn 0.000000 1.000000 0.000000
vn -0.000000 1.000000 0.000000
vn -0.000000 1.000000 0.000000
vn -0.000000 1.000000 0.000000
vn -0.000000 1.000000 0.000000
vn 0.000000 1.000000 0.000000
vn 0.000000 1.000000 0.000000
vn 0.000000 1.000000 0.000000
vn 0.000000 1.000000 0.000000
vn 0.000000 1.000000 0.000000
vn 0.000000 1.000000 0.000000
vn 0.000000 1.000000 0.000000
vn 0.000000 1.000000 0.000000
vn 0.000000 1.000000 0.000000
vn 0.000000 1.000000 0.000000
vn 0.000000 1.000000 0.000000
vn 0.000000 1.000000 0.000000
vn 0.000000 1.000000 0.000000
vn 0.000000 1.000000 0.000000
vn 0.000000 1.000000 0.000000
vn 0.000000 1.000000 0.000000
vn 0.000000 1.000000 0.000000
vn 0.000000 1.000000 0.000000
vn 0.000000 1.000000 0.000000
vn 0.000000 1.000000 0.000000
vn 0.000000 1.000000 0.000000
vn 0.000000 1.000000 0.000000
vn 0.000000 1.000000 0.000000
vn 0.000000 1.000000 0.000000
s 1
g polySurface1
usemtl initialShadingGroup
f 1/1/1 2/2/2 11/3/3 10/4/4
f 2/2/2 3/5/5 57/6/6 11/3/3
f 3/5/5 4/7/7 58/8/8 57/6/6
f 58/8/8 4/7/7 5/9/9 59/10/10
f 5/9/9 6/11/11 60/12/12 59/10/10
f 6/11/11 7/13/13 12/14/14 60/12/12
f 7/13/13 8/15/15 13/16/16 12/14/14
f 8/15/15 9/17/17 14/18/18 13/16/16
f 10/4/4 11/3/3 16/19/19 15/20/20
f 11/3/3 57/6/6 62/21/21 16/19/19
f 60/12/12 12/14/14 52/22/22 61/23/23
f 12/14/14 13/16/16 53/24/24 52/22/22
f 13/16/16 14/18/18 17/25/25 53/24/24
f 17/25/25 18/26/26 54/27/27 53/24/24
f 16/19/19 43/28/28 44/29/29 15/20/20
f 62/21/21 63/30/30 43/28/28 16/19/19
f 56/31/31 55/32/32 49/33/33 48/34/34
f 55/32/32 54/27/27 20/35/35 49/33/33
f 54/27/27 18/26/26 21/36/36 20/35/35
f 19/37/37 45/38/38 46/39/39 22/40/40
f 49/33/33 20/35/35 23/41/41 50/42/42
f 20/35/35 21/36/36 24/43/43 23/41/41
f 46/39/39 26/44/44 25/45/45 22/40/40
f 47/46/46 27/47/47 26/44/44 46/39/39
f 50/42/42 31/48/48 30/49/49 51/50/50
f 23/41/41 32/51/51 31/48/48 50/42/42
f 24/43/43 33/52/52 32/51/51 23/41/41
f 25/45/45 26/44/44 35/53/53 34/54/54
f 26/44/44 27/47/47 36/55/55 35/53/53
f 27/47/47 28/56/56 37/57/57 36/55/55
f 38/58/58 37/57/57 28/56/56 29/59/59
f 29/59/59 30/49/49 39/60/60 38/58/58
f 30/49/49 31/48/48 40/61/61 39/60/60
f 31/48/48 32/51/51 41/62/62 40/61/61
f 32/51/51 33/52/52 42/63/63 41/62/62
f 43/28/28 63/30/30 64/64/64 45/38/38
f 44/29/29 43/28/28 45/38/38 19/37/37
g default
v -148.718445 -0.000000 196.288803
v -92.916824 -0.000000 196.288803
v 87.244644 -0.000000 196.288803
v 143.744888 -0.000000 196.288803
v -148.718445 -0.000000 146.024811
v -148.718445 -0.000000 63.495506
v -148.718445 0.000000 -19.033804
v -92.916801 -0.000000 146.024811
v 87.244659 -0.000000 146.024811
v 87.244644 0.000000 10.582091
v 87.244644 0.000000 -79.443291
v 87.244644 0.000000 -156.294907
v -92.916824 0.000000 -156.294907
v -92.916824 0.000000 -79.443291
v -92.916809 -0.000000 33.290760
v 143.744888 -0.000000 182.934372
v 143.744888 0.000000 10.582091
v 143.744888 0.000000 -79.443291
v 143.744888 0.000000 -170.841324
v 143.744888 0.000000 -206.146271
v 87.244644 0.000000 -206.146271
v -92.916824 0.000000 -206.146271
v -148.718445 0.000000 -206.146271
v -148.718445 0.000000 -191.377274
vt 0.243589 0.161571
vt 0.339799 0.161571
vt 0.339799 0.248233
vt 0.243589 0.248233
vt 0.650422 0.161571
vt 0.650422 0.248233
vt 0.747836 0.161571
vt 0.747836 0.184596
vt 0.747836 0.481755
vt 0.650422 0.481755
vt 0.339799 0.442602
vt 0.243589 0.390525
vt 0.747836 0.636971
vt 0.650422 0.636971
vt 0.243589 0.532817
vt 0.339799 0.636971
vt 0.339799 0.769474
vt 0.243589 0.829961
vt 0.747836 0.794554
vt 0.650422 0.769474
vt 0.339799 0.855425
vt 0.243589 0.855425
vt 0.650422 0.855425
vt 0.747836 0.855425
vn 0.000000 1.000000 0.000000
vn 0.000000 1.000000 0.000000
vn 0.000000 1.000000 0.000000
vn 0.000000 1.000000 0.000000
vn -0.000000 1.000000 0.000000
vn -0.000000 1.000000 0.000000
vn -0.000000 1.000000 0.000000
vn -0.000000 1.000000 0.000000
vn -0.000000 1.000000 0.000000
vn -0.000000 1.000000 0.000000
vn 0.000000 1.000000 0.000000
vn 0.000000 1.000000 0.000000
vn 0.000000 1.000000 0.000000
vn 0.000000 1.000000 0.000000
vn 0.000000 1.000000 0.000000
vn 0.000000 1.000000 0.000000
vn -0.000000 1.000000 0.000000
vn -0.000000 1.000000 0.000000
vn 0.000000 1.000000 0.000000
vn 0.000000 1.000000 0.000000
vn -0.000000 1.000000 0.000000
vn -0.000000 1.000000 0.000000
vn 0.000000 1.000000 0.000000
vn 0.000000 1.000000 0.000000
s 1
g polySurface2
usemtl initialShadingGroup
f 65/65/65 66/66/66 72/67/67 69/68/68
f 72/67/67 66/66/66 67/69/69 73/70/70
f 67/69/69 68/71/71 80/72/72 73/70/70
f 80/72/72 81/73/73 74/74/74 73/70/70
f 79/75/75 70/76/76 69/68/68 72/67/67
f 74/74/74 81/73/73 82/77/77 75/78/78
f 71/79/79 78/80/80 77/81/81 88/82/82
f 75/78/78 82/77/77 83/83/83 76/84/84
f 86/85/85 87/86/86 88/82/82 77/81/81
f 76/84/84 85/87/87 86/85/85 77/81/81
f 83/83/83 84/88/88 85/87/87 76/84/84
f 78/80/80 71/79/79 70/76/76 79/75/75
g default
v 143.744888 -0.000000 182.934372
v 209.493469 -0.000000 182.934372
v 249.996689 -0.000000 182.934372
v 143.744888 0.000000 10.582091
v 209.493469 0.000000 10.582091
v 249.996689 0.000000 10.582091
vt 0.861196 0.184596
vt 0.861196 0.481755
vt 0.747836 0.481755
vt 0.747836 0.184596
vt 0.931029 0.184596
vt 0.931029 0.481755
vn 0.000000 1.000000 0.000000
vn 0.000000 1.000000 0.000000
vn 0.000000 1.000000 0.000000
vn 0.000000 1.000000 0.000000
vn 0.000000 1.000000 0.000000
vn 0.000000 1.000000 0.000000
s 1
g polySurface3
usemtl initialShadingGroup
f 90/89/89 93/90/90 92/91/91 89/92/92
f 91/93/93 94/94/94 93/90/90 90/89/89
g default
v -92.916801 -0.000000 146.024811
v 87.244659 -0.000000 146.024811
v 87.244644 0.000000 10.582091
v -92.916824 0.000000 -79.443291
v 87.244644 0.000000 -79.443291
v -92.916824 0.000000 -156.294907
v 87.244644 0.000000 -156.294907
v -92.916809 -0.000000 33.290760
vt 0.650422 0.481755
vt 0.339799 0.442602
vt 0.339799 0.248233
vt 0.650422 0.248233
vt 0.339799 0.769474
vt 0.339799 0.636971
vt 0.650422 0.636971
vt 0.650422 0.769474
vn -0.000000 1.000000 0.000000
vn -0.000000 1.000000 0.000000
vn -0.000000 1.000000 0.000000
vn -0.000000 1.000000 0.000000
vn 0.000000 1.000000 0.000000
vn -0.000000 1.000000 0.000000
vn -0.000000 1.000000 0.000000
vn 0.000000 1.000000 0.000000
s 1
g polySurface4
usemtl initialShadingGroup
f 97/95/95 102/96/96 95/97/97 96/98/98
f 100/99/99 98/100/100 99/101/101 101/102/102
f 97/95/95 99/101/101 98/100/100 102/96/96
g default
v -257.006775 0.000000 -19.033804
v -148.718445 0.000000 -19.033804
v -257.006775 0.000000 -191.377274
v -148.718445 0.000000 -191.377274
vt 0.056885 0.532817
vt 0.243589 0.532817
vt 0.243589 0.829961
vt 0.056885 0.829961
vn 0.000000 1.000000 0.000000
vn 0.000000 1.000000 0.000000
vn 0.000000 1.000000 0.000000
vn 0.000000 1.000000 0.000000
s off
g polySurface5
usemtl initialShadingGroup
f 103/103/103 104/104/104 106/105/105 105/106/106
g default
v 143.744888 0.000000 -79.443291
v 209.493469 0.000000 -79.443291
v 143.744888 0.000000 -170.841324
v 209.493469 0.000000 -170.841324
vt 0.747836 0.636971
vt 0.861196 0.636971
vt 0.861196 0.794554
vt 0.747836 0.794554
vn 0.000000 1.000000 0.000000
vn 0.000000 1.000000 0.000000
vn 0.000000 1.000000 0.000000
vn 0.000000 1.000000 0.000000
s off
g polySurface6
usemtl initialShadingGroup
f 107/107/107 108/108/108 110/109/109 109/110/110
