# This file uses centimeters as units for non-parametric coordinates.

mtllib whiteboard on wall.mtl
g default
v -6.143847 5.159407 4.823260
v 6.143847 5.159407 4.823260
v -6.143847 12.344302 4.823260
v 6.143847 12.344302 4.823260
v -6.143847 12.344302 4.525744
v 6.143847 12.344302 4.525744
v -6.143847 5.159407 4.525744
v 6.143847 5.159407 4.525744
v -6.429802 12.511508 4.830184
v 6.429802 12.511508 4.830184
v 6.429802 12.511508 4.518820
v -6.429802 12.511508 4.518820
v -6.429802 4.992201 4.518820
v 6.429802 4.992201 4.518820
v 6.429802 4.992201 4.830184
v -6.429802 4.992201 4.830184
v -6.429802 12.511508 4.992063
v 6.429802 12.511508 4.992063
v 6.429802 12.511508 4.520750
v -6.429802 12.511508 4.520750
v -6.429802 4.992201 4.520750
v 6.429802 4.992201 4.520750
v 6.429802 4.992201 4.992063
v -6.429802 4.992201 4.992063
v -6.641124 12.635073 4.999807
v 6.641124 12.635073 4.999807
v 6.641124 12.635073 4.513004
v -6.641124 12.635073 4.513004
v -6.641124 4.868636 4.513004
v 6.641124 4.868636 4.513004
v 6.641124 4.868636 4.999807
v -6.641124 4.868636 4.999807
v 6.639543 4.992201 4.987837
v -6.639590 4.992201 4.987837
v -6.639591 4.868636 4.995582
v 6.639545 4.868636 4.995581
v -6.639590 4.992201 5.548673
v 6.639543 4.992201 5.548673
v -6.639591 4.868636 5.556418
v 6.639545 4.868636 5.556417
v -6.639590 4.992201 5.268255
v -6.639591 4.868636 5.276000
v 6.639545 4.868636 5.276000
v 6.639543 4.992201 5.268255
v -6.639590 4.963450 5.085987
v -6.639590 4.957417 5.128046
v -6.639590 4.963450 5.170104
v -6.639591 4.868636 5.177849
v -6.639591 4.868636 5.135790
v -6.639591 4.868636 5.093732
v 6.639545 4.868636 5.177849
v 6.639545 4.868636 5.135790
v 6.639545 4.868636 5.093732
v 6.639543 4.963450 5.170104
v 6.639543 4.957417 5.128046
v 6.639543 4.963450 5.085987
v -6.639590 4.963450 5.450522
v -6.639590 4.957417 5.408464
v -6.639590 4.963450 5.366405
v 6.639543 4.963450 5.366405
v 6.639543 4.957417 5.408464
v 6.639543 4.963450 5.450522
v 6.639545 4.868636 5.374150
v 6.639545 4.868636 5.416209
v 6.639545 4.868636 5.458267
v -6.639591 4.868636 5.374150
v -6.639591 4.868636 5.416209
v -6.639591 4.868636 5.458267
vt 0.375000 0.000000
vt 0.625000 0.000000
vt 0.375000 0.250000
vt 0.625000 0.250000
vt 0.375000 0.500000
vt 0.625000 0.500000
vt 0.375000 0.750000
vt 0.625000 0.750000
vt 0.375000 1.000000
vt 0.625000 1.000000
vt 0.875000 0.000000
vt 0.875000 0.250000
vt 0.125000 0.000000
vt 0.125000 0.250000
vt 0.375000 0.250000
vt 0.625000 0.250000
vt 0.750000 0.375000
vt 0.250000 0.375000
vt 0.250000 0.375000
vt 0.750000 0.375000
vt 0.625000 0.500000
vt 0.375000 0.500000
vt 0.375000 0.250000
vt 0.625000 0.250000
vt 0.625000 0.500000
vt 0.375000 0.500000
vt 0.375000 0.750000
vt 0.625000 0.750000
vt 0.625000 0.500000
vt 0.375000 0.500000
vt 0.875000 0.000000
vt 0.875000 0.250000
vt 0.125000 0.000000
vt 0.125000 0.250000
vt 0.375000 0.250000
vt 0.375000 0.500000
vt 0.625000 0.500000
vt 0.625000 0.250000
vt 0.375000 0.750000
vt 0.375000 0.500000
vt 0.625000 0.500000
vt 0.625000 0.750000
vt 0.625000 0.000000
vt 0.875000 0.250000
vt 0.875000 0.000000
vt 0.125000 0.000000
vt 0.125000 0.250000
vt 0.375000 0.000000
vt 0.375000 0.250000
vt 0.625000 0.250000
vt 0.625000 0.500000
vt 0.375000 0.500000
vt 0.375000 0.750000
vt 0.625000 0.750000
vt 0.875000 0.000000
vt 0.875000 0.250000
vt 0.125000 0.250000
vt 0.125000 0.000000
vt 0.625000 1.000000
vt 0.375000 1.000000
vt 0.375000 1.000000
vt 0.625000 1.000000
vt 0.625000 1.000000
vt 0.625000 1.000000
vt 0.375000 1.000000
vt 0.375000 1.000000
vt 0.375000 1.000000
vt 0.375000 1.000000
vt 0.375000 1.000000
vt 0.375000 1.000000
vt 0.375000 1.000000
vt 0.375000 1.000000
vt 0.375000 1.000000
vt 0.375000 1.000000
vt 0.625000 1.000000
vt 0.625000 1.000000
vt 0.375000 1.000000
vt 0.625000 1.000000
vt 0.625000 1.000000
vt 0.375000 1.000000
vt 0.375000 1.000000
vt 0.375000 1.000000
vt 0.625000 1.000000
vt 0.625000 1.000000
vt 0.625000 1.000000
vt 0.625000 1.000000
vt 0.625000 1.000000
vt 0.625000 1.000000
vt 0.625000 1.000000
vt 0.375000 1.000000
vt 0.625000 1.000000
vt 0.625000 1.000000
vt 0.625000 1.000000
vt 0.375000 1.000000
vn 0.000000 0.000000 1.000000
vn 0.000000 0.000000 1.000000
vn 0.000000 0.000000 1.000000
vn 0.000000 0.000000 1.000000
vn 0.000000 0.000000 -1.000000
vn 0.000000 0.000000 -1.000000
vn 0.000000 0.000000 -1.000000
vn 0.000000 0.000000 -1.000000
vn 0.000000 -0.041373 0.999144
vn 0.000000 -0.041373 0.999144
vn 0.000000 -0.041373 0.999144
vn 0.000000 -0.041373 0.999144
vn 0.000000 -0.041373 -0.999144
vn 0.000000 -0.041373 -0.999144
vn 0.000000 -0.041373 -0.999144
vn 0.000000 -0.041373 -0.999144
vn 0.000000 0.041373 -0.999144
vn 0.000000 0.041373 -0.999144
vn 0.000000 0.041373 -0.999144
vn 0.000000 0.041373 -0.999144
vn 0.000000 0.041373 0.999144
vn 0.000000 0.041373 0.999144
vn 0.000000 0.041373 0.999144
vn 0.000000 0.041373 0.999144
vn -0.024205 0.000000 -0.999707
vn -0.024205 0.000000 -0.999707
vn -0.024205 0.000000 -0.999707
vn -0.024205 0.000000 -0.999707
vn -0.024205 0.000000 0.999707
vn -0.024205 0.000000 0.999707
vn -0.024205 0.000000 0.999707
vn -0.024205 0.000000 0.999707
vn 0.024205 0.000000 0.999707
vn 0.024205 0.000000 0.999707
vn 0.024205 0.000000 0.999707
vn 0.024205 0.000000 0.999707
vn 0.024205 0.000000 -0.999707
vn 0.024205 0.000000 -0.999707
vn 0.024205 0.000000 -0.999707
vn 0.024205 0.000000 -0.999707
vn 0.000000 1.000000 0.000000
vn 0.000000 1.000000 0.000000
vn 0.000000 1.000000 0.000000
vn 0.000000 1.000000 0.000000
vn -1.000000 0.000000 0.000000
vn -1.000000 0.000000 0.000000
vn -1.000000 0.000000 0.000000
vn -1.000000 0.000000 0.000000
vn 0.000000 -1.000000 0.000000
vn 0.000000 -1.000000 0.000000
vn 0.000000 -1.000000 0.000000
vn 0.000000 -1.000000 0.000000
vn 1.000000 0.000000 0.000000
vn 1.000000 0.000000 0.000000
vn 1.000000 0.000000 0.000000
vn 1.000000 0.000000 0.000000
vn 0.000000 1.000000 0.000000
vn 0.000000 1.000000 0.000000
vn 0.000000 1.000000 0.000000
vn 0.000000 1.000000 0.000000
vn 0.000000 -1.000000 0.000000
vn 0.000000 -1.000000 0.000000
vn 0.000000 -1.000000 0.000000
vn 0.000000 -1.000000 0.000000
vn 1.000000 0.000000 0.000000
vn 1.000000 0.000000 0.000000
vn 1.000000 0.000000 0.000000
vn 1.000000 0.000000 0.000000
vn -1.000000 0.000000 0.000000
vn -1.000000 0.000000 0.000000
vn -1.000000 0.000000 0.000000
vn -1.000000 0.000000 0.000000
vn 0.000000 -1.000000 0.000000
vn 0.000000 -1.000000 0.000000
vn 0.000000 -1.000000 0.000000
vn 0.000000 -1.000000 0.000000
vn 0.000000 1.000000 0.000000
vn 0.000000 1.000000 0.000000
vn 0.000000 1.000000 0.000000
vn 0.000000 1.000000 0.000000
vn -1.000000 0.000000 0.000000
vn -1.000000 0.000000 0.000000
vn -1.000000 0.000000 0.000000
vn -1.000000 0.000000 0.000000
vn 1.000000 0.000000 0.000000
vn 1.000000 0.000000 0.000000
vn 1.000000 0.000000 0.000000
vn 1.000000 0.000000 0.000000
vn 0.000000 -0.062552 0.998042
vn 0.000000 -0.062552 0.998042
vn 0.000000 -0.062552 0.998042
vn 0.000000 -0.062552 0.998042
vn 0.000000 -0.062567 -0.998041
vn 0.000000 -0.062567 -0.998041
vn 0.000000 -0.062567 -0.998041
vn 0.000000 -0.062567 -0.998041
vn 0.000000 0.062566 -0.998041
vn 0.000000 0.062566 -0.998041
vn 0.000000 0.062566 -0.998041
vn 0.000000 0.062566 -0.998041
vn -0.036632 0.000000 -0.999329
vn -0.036632 0.000000 -0.999329
vn -0.036632 0.000000 -0.999329
vn -0.036632 0.000000 -0.999329
vn -0.036622 0.000000 0.999329
vn -0.036622 0.000000 0.999329
vn -0.036622 0.000000 0.999329
vn -0.036622 0.000000 0.999329
vn 0.036623 0.000000 0.999329
vn 0.036623 0.000000 0.999329
vn 0.036623 0.000000 0.999329
vn 0.036623 0.000000 0.999329
vn 0.036631 0.000000 -0.999329
vn 0.036631 0.000000 -0.999329
vn 0.036631 0.000000 -0.999329
vn 0.036631 0.000000 -0.999329
vn 0.000000 0.062551 0.998042
vn 0.000000 0.062551 0.998042
vn 0.000000 0.062551 0.998042
vn 0.000000 0.062551 0.998042
vn 0.000000 0.062553 0.998042
vn 0.000000 0.062553 0.998042
vn 0.000000 0.062553 0.998042
vn 0.000000 0.062553 0.998042
vn -0.000000 -0.062553 -0.998042
vn -0.000000 -0.062553 -0.998042
vn -0.000000 -0.062553 -0.998042
vn -0.000000 -0.062553 -0.998042
vn -1.000000 0.000012 -0.000002
vn -1.000000 0.000014 0.000000
vn -1.000000 0.000014 -0.000000
vn -1.000000 0.000012 -0.000002
vn -1.000000 0.000012 0.000002
vn -1.000000 0.000012 0.000002
vn 0.000000 0.970576 0.240793
vn 0.000000 1.000000 0.000000
vn 0.000000 1.000000 0.000000
vn 0.000000 0.970576 0.240793
vn 0.000000 0.970576 -0.240793
vn 0.000000 0.970576 -0.240793
vn 0.000000 0.959672 0.281121
vn 0.000000 0.959672 0.281121
vn -1.000000 0.000011 -0.000000
vn -1.000000 0.000011 0.000000
vn -1.000000 0.000012 0.000002
vn -1.000000 0.000012 0.000002
vn 0.000000 -1.000000 0.000000
vn 0.000000 -1.000000 0.000000
vn 0.000000 -1.000000 0.000000
vn 0.000000 -1.000000 0.000000
vn 1.000000 0.000022 0.000000
vn 1.000000 0.000022 -0.000000
vn 1.000000 0.000025 0.000003
vn 1.000000 0.000026 0.000003
vn 0.000000 -1.000000 0.000000
vn 0.000000 -1.000000 0.000000
vn 1.000000 0.000023 -0.000003
vn 1.000000 0.000023 -0.000003
vn 0.000000 0.970576 -0.240793
vn 0.000000 0.970576 -0.240793
vn 0.000000 0.959672 -0.281121
vn 0.000000 0.959672 -0.281121
vn -1.000000 0.000011 0.000002
vn -1.000000 0.000011 0.000002
vn 0.000000 -1.000000 0.000000
vn 0.000000 -1.000000 0.000000
vn 0.000000 -1.000000 0.000000
vn 0.000000 -1.000000 0.000000
vn 1.000000 0.000022 0.000003
vn 1.000000 0.000022 0.000003
vn 1.000000 0.000023 0.000003
vn 1.000000 0.000024 0.000003
vn 0.000000 0.959672 0.281122
vn 0.000000 0.959672 0.281122
vn 0.000000 0.970576 0.240794
vn 0.000000 0.970576 0.240794
vn 0.000000 0.959672 -0.281121
vn 0.000000 0.959672 -0.281121
vn 1.000000 0.000025 -0.000003
vn 1.000000 0.000025 -0.000003
vn 1.000000 0.000022 -0.000003
vn 1.000000 0.000022 -0.000003
vn 0.000000 -1.000000 0.000000
vn 0.000000 -1.000000 0.000000
vn 0.000000 -1.000000 0.000000
vn 0.000000 -1.000000 0.000000
vn -1.000000 0.000012 -0.000002
vn -1.000000 0.000012 -0.000002
vn -1.000000 0.000011 -0.000002
vn -1.000000 0.000011 -0.000002
vn 0.000000 -1.000000 0.000000
vn 0.000000 -1.000000 0.000000
vn 1.000000 0.000027 -0.000000
vn 1.000000 0.000027 0.000000
vn 0.000000 1.000000 0.000000
vn 0.000000 1.000000 0.000000
vn 1.000000 0.000035 0.000000
vn 1.000000 0.000035 -0.000000
vn 0.000000 -1.000000 0.000000
vn 0.000000 -1.000000 0.000000
vn -1.000000 0.000014 0.000000
vn -1.000000 0.000014 -0.000000
s off
g initialShadingGroup polySurface4
f 1/1/1 2/2/2 4/4/3 3/3/4
f 5/5/5 6/6/6 8/8/7 7/7/8
f 3/3/9 4/4/10 10/16/11 9/15/12
f 6/6/13 5/5/14 12/18/15 11/17/16
f 7/7/17 8/8/18 14/20/19 13/19/20
f 2/10/21 1/9/22 16/22/23 15/21/24
f 8/11/25 6/12/26 11/17/27 14/20/28
f 4/4/29 2/2/30 15/21/31 10/16/32
f 1/1/33 3/3/34 9/15/35 16/22/36
f 5/14/37 7/13/38 13/19/39 12/18/40
f 9/15/41 10/16/42 11/17/43 12/18/44
f 16/22/45 9/15/46 12/18/47 13/19/48
f 13/19/49 14/20/50 15/21/51 16/22/52
f 14/20/53 11/17/54 10/16/55 15/21/56
f 25/23/57 26/24/58 27/25/59 28/26/60
f 29/27/61 30/28/62 31/29/63 32/30/64
f 31/29/65 30/31/66 27/32/67 26/24/68
f 29/33/69 32/30/70 25/23/71 28/34/72
f 17/35/73 20/36/74 19/37/75 18/38/76
f 21/39/77 24/40/78 23/41/79 22/42/80
f 23/43/81 18/38/82 19/44/83 22/45/84
f 21/46/85 20/47/86 17/35/87 24/48/88
f 17/49/89 18/50/90 26/24/91 25/23/92
f 19/51/93 20/52/94 28/26/95 27/25/96
f 21/53/97 22/54/98 30/28/99 29/27/100
f 22/55/101 19/56/102 27/32/103 30/31/104
f 18/50/105 23/41/106 31/29/107 26/24/108
f 24/40/109 17/49/110 25/23/111 32/30/112
f 20/57/113 21/58/114 29/33/115 28/34/116
f 23/41/117 24/40/118 32/30/119 31/29/120
f 38/59/121 37/60/122 39/61/123 40/62/124
f 33/63/125 36/64/126 35/65/127 34/66/128
s 1
f 47/67/129 46/68/130 49/69/131 48/70/132
f 46/68/130 45/71/133 50/72/134 49/69/131
s 2
f 59/73/135 58/74/136 61/75/137 60/76/138
f 58/74/136 57/77/139 62/78/140 61/75/137
f 44/79/141 41/80/142 59/73/135 60/76/138
s 1
f 41/80/143 42/81/144 66/82/145 59/73/146
s 3
f 42/81/147 43/83/148 63/84/149 66/82/150
s 4
f 43/83/151 44/79/152 60/76/153 63/84/154
s 1
f 47/67/129 48/70/132 42/81/144 41/80/143
s 3
f 48/70/155 51/85/156 43/83/148 42/81/147
s 4
f 51/85/157 54/86/158 44/79/152 43/83/151
s 5
f 54/86/159 47/67/160 41/80/161 44/79/162
s 1
f 34/66/163 35/65/164 50/72/134 45/71/133
s 3
f 35/65/165 36/64/166 53/87/167 50/72/168
s 4
f 36/64/169 33/63/170 56/88/171 53/87/172
s 5
f 33/63/173 34/66/174 45/71/175 56/88/176
s 2
f 62/78/140 57/77/139 37/60/177 38/59/178
s 4
f 65/89/179 62/78/180 38/59/181 40/62/182
s 3
f 68/90/183 65/89/184 40/62/185 39/61/186
s 1
f 57/77/187 68/90/188 39/61/189 37/60/190
s 3
f 48/70/155 49/69/191 52/91/192 51/85/156
f 49/69/191 50/72/168 53/87/167 52/91/192
s 4
f 51/85/157 52/91/193 55/92/194 54/86/158
f 52/91/193 53/87/172 56/88/171 55/92/194
s 5
f 45/71/175 46/68/195 55/92/196 56/88/176
f 46/68/195 47/67/160 54/86/159 55/92/196
s 4
f 60/76/153 61/75/197 64/93/198 63/84/154
f 61/75/197 62/78/180 65/89/179 64/93/198
s 3
f 63/84/149 64/93/199 67/94/200 66/82/150
f 64/93/199 65/89/184 68/90/183 67/94/200
s 1
f 57/77/187 58/74/201 67/94/202 68/90/188
f 58/74/201 59/73/146 66/82/145 67/94/202
