# This file uses centimeters as units for non-parametric coordinates.

mtllib WorkPlanes.mtl
g default
v -290.000000 -0.000000 290.000000
v 290.000000 -0.000000 290.000000
v -290.000000 0.000000 -290.000000
v 290.000000 0.000000 -290.000000
v 236.163818 -0.000000 290.000000
v 236.163818 0.000000 -290.000000
v -290.000000 0.000000 -205.470215
v 290.000000 0.000000 -205.470215
v 102.227768 0.000000 -290.000000
v -290.000000 0.000000 -146.619751
v 290.000000 0.000000 -146.619751
v -236.671143 -0.000000 290.000000
v -236.671143 0.000000 -205.470215
v -236.671143 0.000000 -290.000000
v -290.000000 -0.000000 247.071671
v 290.000000 -0.000000 247.071671
v -290.000000 0.000000 -12.175949
v 290.000000 0.000000 -72.548729
v -109.837952 0.000000 -205.470215
v -109.837952 0.000000 -290.000000
v -290.000000 -0.000000 186.698914
v 290.000000 -0.000000 186.698914
v -60.919621 0.000000 -205.470215
v -60.919621 0.000000 -290.000000
v -290.000000 -0.000000 112.120773
v 290.000000 -0.000000 112.120773
v -290.000000 -0.000000 51.748077
v 290.000000 -0.000000 51.748077
v 290.000000 -0.000000 139.516830
v 20.654074 0.000000 -205.470215
v 20.654074 0.000000 -290.000000
v 149.239487 -0.000000 290.000000
v 172.946136 0.000000 -290.000000
v -164.267273 -0.000000 290.000000
v -164.267654 0.000000 -205.470215
v -164.267654 0.000000 -290.000000
v -290.000000 0.000000 -79.397850
v -236.671143 0.000000 -79.397850
v -236.671143 0.000000 -146.619751
v -236.671143 -0.000000 247.071671
v -236.671143 -0.000000 186.698914
v 236.163818 -0.000000 247.071671
v 236.163818 -0.000000 186.698914
v 236.163818 -0.000000 139.516830
v 172.946136 0.000000 -205.470215
v 236.163818 0.000000 -205.470215
v 102.227768 0.000000 -205.470215
v 236.163818 0.000000 -146.619751
v 236.163818 -0.000000 51.748077
v 236.163818 0.000000 -72.548729
v 236.163818 -0.000000 112.120773
v -164.267654 0.000000 -146.619751
v -109.837952 0.000000 -146.619751
v -60.919621 0.000000 -146.619751
v 20.654074 0.000000 -146.619751
v 102.227768 0.000000 -146.619751
v -52.001907 -0.000000 290.000000
v -52.001907 -0.000000 247.071671
v -164.267273 -0.000000 247.071655
v 52.001698 -0.000000 247.071671
v 164.122299 -0.000000 247.071655
v 52.001698 -0.000000 290.000000
v -236.671127 -0.000000 51.748077
v -236.671143 0.000000 -12.175949
v -236.671143 -0.000000 112.120773
vt 0.000000 0.854259
vt 0.091946 0.854259
vt 0.091946 1.000000
vt 0.000000 1.000000
vt 0.907179 1.000000
vt 0.907179 0.854259
vt 1.000000 0.854259
vt 1.000000 1.000000
vt 0.000000 0.752793
vt 0.091946 0.752793
vt 0.907179 0.752793
vt 1.000000 0.752793
vt 0.676255 1.000000
vt 0.676255 0.854259
vt 0.798183 0.854259
vt 0.798183 1.000000
vt 0.000000 0.636893
vt 0.091946 0.636893
vt 0.907179 0.625084
vt 1.000000 0.625084
vt 0.216780 0.752793
vt 0.216780 0.854259
vt 0.216780 1.000000
vt 0.000000 0.000000
vt 0.091946 0.000000
vt 0.091946 0.074014
vt 0.000000 0.074014
vt 0.216781 0.000000
vt 0.216781 0.074014
vt 0.757309 0.000000
vt 0.782969 0.074014
vt 0.589658 0.074014
vt 0.589658 0.000000
vt 1.000000 0.074014
vt 0.907179 0.074014
vt 0.907179 0.000000
vt 1.000000 0.000000
vt 0.000000 0.410779
vt 0.091946 0.410779
vt 0.091946 0.520993
vt 0.000000 0.520993
vt 0.907179 0.410779
vt 1.000000 0.410779
vt 0.310624 0.854259
vt 0.310624 0.752793
vt 0.394966 0.752793
vt 0.394966 0.854259
vt 0.310624 1.000000
vt 0.394966 1.000000
vt 0.091946 0.178105
vt 0.000000 0.178105
vt 1.000000 0.178105
vt 0.907179 0.178105
vt 0.535610 0.752793
vt 0.535610 0.854259
vt 0.535610 1.000000
vt 0.091946 0.306688
vt 0.000000 0.306688
vt 1.000000 0.259454
vt 0.907179 0.259454
vt 0.907179 0.306688
vt 1.000000 0.306688
vt 0.676255 0.752793
vt 0.410342 0.000000
vt 0.410342 0.074014
vn 0.000000 1.000000 0.000000
vn 0.000000 1.000000 0.000000
vn 0.000000 1.000000 0.000000
vn 0.000000 1.000000 0.000000
vn 0.000000 1.000000 0.000000
vn 0.000000 1.000000 0.000000
vn 0.000000 1.000000 0.000000
vn 0.000000 1.000000 0.000000
vn 0.000000 1.000000 0.000000
vn 0.000000 1.000000 0.000000
vn 0.000000 1.000000 0.000000
vn 0.000000 1.000000 0.000000
vn 0.000000 1.000000 0.000000
vn 0.000000 1.000000 0.000000
vn 0.000000 1.000000 0.000000
vn 0.000000 1.000000 0.000000
vn 0.000000 1.000000 0.000000
vn 0.000000 1.000000 0.000000
vn 0.000000 1.000000 0.000000
vn 0.000000 1.000000 0.000000
vn 0.000000 1.000000 0.000000
vn 0.000000 1.000000 0.000000
vn 0.000000 1.000000 0.000000
vn 0.000000 1.000000 0.000000
vn 0.000000 1.000000 0.000000
vn 0.000000 1.000000 0.000000
vn 0.000000 1.000000 0.000000
vn 0.000000 1.000000 0.000000
vn 0.000000 1.000000 0.000000
vn -0.000000 1.000000 0.000000
vn 0.000000 1.000000 0.000000
vn -0.000000 1.000000 0.000000
vn -0.000000 1.000000 0.000000
vn 0.000000 1.000000 0.000000
vn 0.000000 1.000000 0.000000
vn 0.000000 1.000000 0.000000
vn 0.000000 1.000000 0.000000
vn 0.000000 1.000000 0.000000
vn 0.000000 1.000000 0.000000
vn 0.000000 1.000000 0.000000
vn 0.000000 1.000000 0.000000
vn 0.000000 1.000000 0.000000
vn 0.000000 1.000000 0.000000
vn 0.000000 1.000000 0.000000
vn 0.000000 1.000000 0.000000
vn 0.000000 1.000000 0.000000
vn 0.000000 1.000000 0.000000
vn 0.000000 1.000000 0.000000
vn 0.000000 1.000000 0.000000
vn 0.000000 1.000000 0.000000
vn 0.000000 1.000000 0.000000
vn 0.000000 1.000000 0.000000
vn 0.000000 1.000000 0.000000
vn 0.000000 1.000000 0.000000
vn 0.000000 1.000000 0.000000
vn 0.000000 1.000000 0.000000
vn 0.000000 1.000000 0.000000
vn 0.000000 1.000000 0.000000
vn 0.000000 1.000000 0.000000
vn 0.000000 1.000000 0.000000
vn 0.000000 1.000000 0.000000
vn 0.000000 1.000000 0.000000
vn 0.000000 1.000000 0.000000
vn 0.000000 1.000000 0.000000
vn 0.000000 1.000000 0.000000
s 1
g polySurface1
usemtl initialShadingGroup
f 7/1/1 13/2/2 14/3/3 3/4/4
f 6/5/5 46/6/6 8/7/7 4/8/8
f 10/9/9 39/10/10 13/2/2 7/1/1
f 8/7/7 46/6/6 48/11/11 11/12/12
f 9/13/13 47/14/14 45/15/15 33/16/16
f 37/17/17 38/18/18 39/10/10 10/9/9
f 11/12/12 48/11/11 50/19/19 18/20/20
f 13/2/2 39/10/10 52/21/21 35/22/22
f 14/3/3 13/2/2 35/22/22 36/23/23
f 1/24/24 12/25/25 40/26/26 15/27/27
f 34/28/28 59/29/29 40/26/26 12/25/25
f 32/30/30 61/31/31 60/32/32 62/33/33
f 16/34/34 42/35/35 5/36/36 2/37/37
f 27/38/38 63/39/39 64/40/40 17/41/41
f 18/20/20 50/19/19 49/42/42 28/43/43
f 19/44/44 53/45/45 54/46/46 23/47/47
f 20/48/48 19/44/44 23/47/47 24/49/49
f 15/27/27 40/26/26 41/50/50 21/51/51
f 22/52/52 43/53/53 42/35/35 16/34/34
f 23/47/47 54/46/46 55/54/54 30/55/55
f 24/49/49 23/47/47 30/55/55 31/56/56
f 21/51/51 41/50/50 65/57/57 25/58/58
f 29/59/59 44/60/60 43/53/53 22/52/52
f 25/58/58 65/57/57 63/39/39 27/38/38
f 28/43/43 49/42/42 51/61/61 26/62/62
f 26/62/62 51/61/61 44/60/60 29/59/59
f 30/55/55 55/54/54 56/63/63 47/14/14
f 31/56/56 30/55/55 47/14/14 9/13/13
f 42/35/35 61/31/31 32/30/30 5/36/36
f 33/16/16 45/15/15 46/6/6 6/5/5
f 57/64/64 58/65/65 59/29/29 34/28/28
f 35/22/22 52/21/21 53/45/45 19/44/44
f 36/23/23 35/22/22 19/44/44 20/48/48
f 17/41/41 64/40/40 38/18/18 37/17/17
g default
v 236.163818 0.000000 -205.470215
v 102.227768 0.000000 -205.470215
v 102.227768 0.000000 -146.619751
v 236.163818 0.000000 -146.619751
v 236.163818 0.000000 -72.548729
v 176.298584 0.000000 -72.548737
v 172.946136 0.000000 -205.470215
v 124.956337 0.000000 -146.619751
v 176.298431 0.000000 -95.206329
v 150.627380 0.000000 -120.913040
v 189.334961 0.000000 -157.780960
vt 0.715442 0.752793
vt 0.798183 0.854259
vt 0.676255 0.854259
vt 0.676255 0.752793
vt 0.826440 0.772036
vt 0.907179 0.752793
vt 0.907179 0.854259
vt 0.759702 0.708471
vt 0.803963 0.664149
vt 0.803963 0.625084
vt 0.907179 0.625084
vn -0.000000 1.000000 0.000000
vn -0.000000 1.000000 0.000000
vn 0.000000 1.000000 0.000000
vn 0.000000 1.000000 0.000000
vn -0.000000 1.000000 0.000000
vn 0.000000 1.000000 0.000000
vn 0.000000 1.000000 0.000000
vn -0.000000 1.000000 0.000000
vn 0.000000 1.000000 0.000000
vn 0.000000 1.000000 0.000000
vn 0.000000 1.000000 0.000000
s 1
g polySurface2
usemtl initialShadingGroup
f 73/66/66 72/67/67 67/68/68 68/69/69
f 72/67/67 76/70/70 69/71/71 66/72/72
f 69/71/71 76/70/70 75/73/73 74/74/74
f 69/71/71 74/74/74 71/75/75 70/76/76
f 75/73/73 76/70/70 72/67/67 73/66/66
g default
v -236.671143 0.000000 -146.619751
v -236.671143 0.000000 -12.175949
v -164.267654 0.000000 -146.619751
v -236.671143 0.000000 -79.397850
v -164.267624 0.000000 -79.397850
v -180.864578 0.000000 -12.176016
v -165.137222 0.000000 -30.947374
v -173.000900 0.000000 -21.561695
vt 0.091946 0.752793
vt 0.091946 0.636893
vt 0.216780 0.636893
vt 0.216780 0.752793
vt 0.091946 0.520993
vt 0.188165 0.520993
vt 0.201723 0.537175
vt 0.215281 0.553358
vn 0.000000 1.000000 0.000000
vn 0.000000 1.000000 0.000000
vn 0.000000 1.000000 0.000000
vn 0.000000 1.000000 0.000000
vn 0.000000 1.000000 0.000000
vn 0.000000 1.000000 0.000000
vn 0.000000 1.000000 0.000000
vn 0.000000 1.000000 0.000000
s 1
g polySurface3
usemtl initialShadingGroup
f 77/77/77 80/78/78 81/79/79 79/80/80
f 81/79/79 80/78/78 78/81/81 82/82/82 84/83/83 83/84/84
g default
v 52.001698 -0.000000 290.000000
v 52.001698 -0.000000 247.071671
v -52.001907 -0.000000 290.000000
v -52.001907 -0.000000 247.071671
v -109.330582 0.000000 -81.680740
v -109.837952 0.000000 -146.619751
v -11.703529 -0.000000 290.000000
v -11.703529 -0.000000 247.071686
v -61.133900 0.000000 -81.680740
v -60.919621 0.000000 -146.619751
v -236.671127 -0.000000 51.748077
v 236.163818 -0.000000 51.748077
v 20.654074 0.000000 -146.619751
v 20.149084 -0.000000 247.071686
v 20.149084 -0.000000 290.000000
v 176.298584 -0.000000 51.748077
v -181.647278 -0.000000 51.748077
v -109.330582 0.000000 -30.440071
v -236.671143 0.000000 -12.175949
v -180.864578 0.000000 -12.176016
v -173.000900 0.000000 -21.561695
v -165.137222 0.000000 -30.947374
v -164.267624 0.000000 -79.397850
v -164.267654 0.000000 -146.619751
v -164.267273 -0.000000 247.071655
v -164.267593 -0.000000 186.698914
v -164.122559 0.000000 131.399506
v -173.254578 0.000000 121.760162
v -182.386581 0.000000 112.120819
v -236.671143 -0.000000 112.120773
v -109.330536 -0.000000 186.698914
v -109.330566 -0.000000 51.748077
v -109.330551 -0.000000 130.384842
v -109.330559 -0.000000 92.334755
v -24.605747 -0.000000 186.698914
v 42.362350 -0.000000 186.698914
v 109.330444 -0.000000 186.698914
v 109.330444 -0.000000 139.516830
v 109.330444 -0.000000 51.748077
v 109.330444 0.000000 -81.680740
v -4.692894 0.000000 -81.680740
v 109.330444 -0.000000 92.334755
v 164.122299 -0.000000 247.071655
v 236.163818 -0.000000 112.120773
v 164.122574 -0.000000 112.120773
v 164.122574 -0.000000 139.516830
v 164.122574 -0.000000 186.698914
v 102.227768 0.000000 -146.619751
v 124.956337 0.000000 -146.619751
v 150.627380 0.000000 -120.913040
v 176.298431 0.000000 -95.206329
v 176.298584 0.000000 -72.548737
v 236.163818 0.000000 -72.548729
vt 0.803963 0.410779
vt 0.803963 0.625084
vt 0.688501 0.640829
vt 0.688501 0.410779
vt 0.410342 0.000000
vt 0.479822 0.000000
vt 0.479822 0.074014
vt 0.410342 0.074014
vt 0.310624 0.752793
vt 0.311499 0.640829
vt 0.394597 0.640829
vt 0.394966 0.752793
vt 0.457576 0.178105
vt 0.311499 0.178105
vt 0.782969 0.074014
vt 0.782970 0.178105
vt 0.688501 0.178105
vt 0.589658 0.074014
vt 0.534740 0.074014
vt 0.534740 0.000000
vt 0.589658 0.000000
vt 0.573039 0.178105
vt 0.491909 0.640829
vt 0.535610 0.752793
vt 0.782970 0.259454
vt 0.688501 0.259454
vt 0.186815 0.410779
vt 0.185540 0.306688
vt 0.201285 0.290069
vt 0.311499 0.410779
vt 0.782970 0.306688
vt 0.688501 0.340802
vt 0.676255 0.752793
vt 0.907179 0.410779
vt 0.907179 0.306688
vt 0.907179 0.625084
vt 0.803963 0.664149
vt 0.759702 0.708471
vt 0.715442 0.752793
vt 0.216780 0.178105
vt 0.216781 0.074014
vt 0.216780 0.752793
vt 0.216780 0.636893
vt 0.188165 0.520993
vt 0.091946 0.520993
vt 0.091946 0.410779
vt 0.091946 0.306688
vt 0.215281 0.553358
vt 0.311499 0.552483
vt 0.311499 0.275199
vt 0.217030 0.273449
vt 0.311499 0.340802
vt 0.201723 0.537175
vn -0.000000 1.000000 0.000000
vn -0.000000 1.000000 0.000000
vn -0.000000 1.000000 0.000000
vn -0.000000 1.000000 0.000000
vn 0.000000 1.000000 0.000000
vn 0.000000 1.000000 0.000000
vn 0.000000 1.000000 0.000000
vn 0.000000 1.000000 0.000000
vn 0.000000 1.000000 0.000000
vn 0.000000 1.000000 0.000000
vn 0.000000 1.000000 0.000000
vn 0.000000 1.000000 0.000000
vn -0.000000 1.000000 0.000000
vn 0.000000 1.000000 0.000000
vn -0.000000 1.000000 0.000000
vn -0.000000 1.000000 0.000000
vn -0.000000 1.000000 0.000000
vn -0.000000 1.000000 0.000000
vn -0.000000 1.000000 0.000000
vn -0.000000 1.000000 0.000000
vn -0.000000 1.000000 0.000000
vn 0.000000 1.000000 0.000000
vn 0.000000 1.000000 0.000000
vn 0.000000 1.000000 0.000000
vn -0.000000 1.000000 0.000000
vn -0.000000 1.000000 0.000000
vn 0.000000 1.000000 0.000000
vn -0.000000 1.000000 -0.000000
vn 0.000000 1.000000 -0.000000
vn 0.000000 1.000000 0.000000
vn -0.000000 1.000000 0.000000
vn -0.000000 1.000000 0.000000
vn 0.000000 1.000000 0.000000
vn -0.000000 1.000000 0.000000
vn 0.000000 1.000000 0.000000
vn -0.000000 1.000000 0.000000
vn -0.000000 1.000000 0.000000
vn -0.000000 1.000000 0.000000
vn 0.000000 1.000000 0.000000
vn 0.000000 1.000000 0.000000
vn -0.000000 1.000000 0.000000
vn 0.000000 1.000000 0.000000
vn 0.000000 1.000000 0.000000
vn 0.000000 1.000000 0.000000
vn 0.000000 1.000000 0.000000
vn -0.000000 1.000000 0.000000
vn -0.000000 1.000000 -0.000000
vn -0.000000 1.000000 0.000000
vn -0.000000 1.000000 0.000000
vn 0.000000 1.000000 0.000000
vn 0.000000 1.000000 0.000000
vn 0.000000 1.000000 0.000000
vn -0.000000 1.000000 0.000000
s 1
g polySurface4
usemtl initialShadingGroup
f 100/85/85 136/86/86 124/87/87 123/88/88
f 87/89/89 91/90/90 92/91/91 88/92/92
f 90/93/93 89/94/94 93/95/95 94/96/96
f 92/91/91 119/97/97 115/98/98 88/92/92
f 127/99/99 131/100/100 121/101/101 86/102/102
f 86/102/102 98/103/103 99/104/104 85/105/105
f 121/101/101 120/106/106 98/103/103 86/102/102
f 94/96/96 93/95/95 125/107/107 97/108/108
f 131/100/100 130/109/109 122/110/110 121/101/101
f 101/111/111 113/112/112 112/113/113 116/114/114
f 129/115/115 100/85/85 123/88/88 126/116/116
f 130/109/109 129/115/115 126/116/116 122/110/110
f 97/108/108 125/107/107 124/87/87 132/117/117
f 98/103/103 120/106/106 119/97/97 92/91/91
f 99/104/104 98/103/103 92/91/91 91/90/90
f 96/118/118 100/85/85 129/115/115 128/119/119
f 137/120/120 136/86/86 100/85/85 96/118/118
f 136/86/86 135/121/121 134/122/122 124/87/87
f 124/87/87 134/122/122 133/123/123 132/117/117
f 88/92/92 115/98/98 110/124/124 109/125/125
f 108/126/126 107/127/127 89/94/94 90/93/93
f 101/111/111 104/128/128 103/129/129 95/130/130
f 95/130/130 114/131/131 113/112/112 101/111/111
f 107/127/127 106/132/132 102/133/133 89/94/94
f 117/134/134 111/135/135 110/124/124 115/98/98
f 116/114/114 112/113/113 111/135/135 117/134/134 118/136/136
f 116/114/114 105/137/137 104/128/128 101/111/111
f 102/133/133 106/132/132 105/137/137 116/114/114
g default
v -80.158897 0.000000 -30.693714
v -24.625566 -0.000000 51.748077
v -66.978073 -0.000000 51.748077
v -109.330582 0.000000 -81.680740
v -61.133900 0.000000 -81.680740
v -109.330582 0.000000 -30.440071
v -109.330566 -0.000000 51.748077
v -4.692894 -0.000000 51.748077
v -4.692894 0.000000 -81.680740
vt 0.311499 0.552483
vt 0.361795 0.552920
vt 0.394597 0.640829
vt 0.311499 0.640829
vt 0.491909 0.410779
vt 0.491909 0.640829
vt 0.457542 0.410779
vt 0.384521 0.410779
vt 0.311499 0.410779
vn -0.000000 1.000000 0.000000
vn 0.000000 1.000000 0.000000
vn 0.000000 1.000000 0.000000
vn -0.000000 1.000000 0.000000
vn 0.000000 1.000000 0.000000
vn 0.000000 1.000000 0.000000
vn 0.000000 1.000000 0.000000
vn 0.000000 1.000000 0.000000
vn -0.000000 1.000000 0.000000
s 1
g polySurface5
usemtl initialShadingGroup
f 143/138/138 138/139/139 142/140/140 141/141/141
f 145/142/142 146/143/143 142/140/140 139/144/144
f 138/139/139 140/145/145 139/144/144 142/140/140
f 144/146/146 140/145/145 138/139/139 143/138/138
g default
v -236.671143 -0.000000 247.071671
v -236.671143 -0.000000 186.698914
v -236.671143 -0.000000 112.120773
v -164.267273 -0.000000 247.071655
v -164.267593 -0.000000 186.698914
v -182.386581 0.000000 112.120819
v -164.122559 0.000000 131.399506
v -173.254578 0.000000 121.760162
vt 0.216781 0.074014
vt 0.216780 0.178105
vt 0.091946 0.178105
vt 0.091946 0.074014
vt 0.217030 0.273449
vt 0.201285 0.290069
vt 0.185540 0.306688
vt 0.091946 0.306688
vn 0.000000 1.000000 0.000000
vn -0.000000 1.000000 0.000000
vn -0.000000 1.000000 0.000000
vn 0.000000 1.000000 0.000000
vn -0.000000 1.000000 0.000000
vn -0.000000 1.000000 0.000000
vn -0.000000 1.000000 0.000000
vn -0.000000 1.000000 0.000000
s 1
g polySurface6
usemtl initialShadingGroup
f 150/147/147 151/148/148 148/149/149 147/150/150
f 151/148/148 153/151/151 154/152/152 152/153/153 149/154/154 148/149/149
g default
v -109.330536 -0.000000 186.698914
v -24.605747 -0.000000 186.698914
v -109.330559 -0.000000 92.334755
v -24.605759 -0.000000 92.334755
v -109.330566 -0.000000 51.748077
v -24.625566 -0.000000 51.748077
v -4.692894 -0.000000 92.334755
v -4.692894 -0.000000 51.748077
v -109.330551 -0.000000 130.384842
v -66.978073 -0.000000 51.748077
v -66.968155 -0.000000 92.334755
v -68.337959 -0.000000 130.080460
vt 0.382176 0.275723
vt 0.384538 0.340802
vt 0.311499 0.340802
vt 0.311499 0.275199
vt 0.384521 0.410779
vt 0.457576 0.340802
vt 0.457542 0.410779
vt 0.491909 0.340802
vt 0.491909 0.410779
vt 0.311499 0.410779
vt 0.457576 0.178105
vt 0.311499 0.178105
vn -0.000000 1.000000 0.000000
vn -0.000000 1.000000 0.000000
vn 0.000000 1.000000 0.000000
vn 0.000000 1.000000 0.000000
vn 0.000000 1.000000 0.000000
vn -0.000000 1.000000 0.000000
vn 0.000000 1.000000 0.000000
vn 0.000000 1.000000 0.000000
vn 0.000000 1.000000 0.000000
vn 0.000000 1.000000 0.000000
vn -0.000000 1.000000 0.000000
vn 0.000000 1.000000 0.000000
s 1
g polySurface7
usemtl initialShadingGroup
f 166/155/155 165/156/156 157/157/157 163/158/158
f 164/159/159 165/156/156 158/160/160 160/161/161
f 161/162/162 162/163/163 160/161/161 158/160/160
f 157/157/157 165/156/156 164/159/159 159/164/164
f 156/165/165 166/155/155 163/158/158 155/166/166
f 158/160/160 165/156/156 166/155/155 156/165/165
g default
v 109.330444 -0.000000 186.698914
v 109.330444 -0.000000 92.334755
v 109.330444 -0.000000 139.516830
v 41.157429 -0.000000 138.248489
v 42.362350 -0.000000 186.698914
v -24.605747 -0.000000 186.698914
v -24.605759 -0.000000 92.334755
v -4.692894 -0.000000 92.334755
vt 0.688501 0.259454
vt 0.570961 0.261641
vt 0.573039 0.178105
vt 0.688501 0.178105
vt 0.688501 0.340802
vt 0.491909 0.340802
vt 0.457576 0.340802
vt 0.457576 0.178105
vn 0.000000 1.000000 0.000000
vn -0.000000 1.000000 0.000000
vn -0.000000 1.000000 0.000000
vn 0.000000 1.000000 0.000000
vn 0.000000 1.000000 0.000000
vn -0.000000 1.000000 0.000000
vn -0.000000 1.000000 0.000000
vn -0.000000 1.000000 0.000000
s 1
g polySurface8
usemtl initialShadingGroup
f 169/167/167 170/168/168 171/169/169 167/170/170
f 168/171/171 174/172/172 170/168/168 169/167/167
f 171/169/169 170/168/168 174/172/172 173/173/173 172/174/174
g default
v 109.330444 0.000000 -81.680740
v 109.330444 -0.000000 51.748077
v -4.692894 0.000000 -81.680740
v -4.692894 -0.000000 51.748077
v 109.330444 -0.000000 92.334755
v -4.692894 -0.000000 92.334755
vt 0.688501 0.410779
vt 0.491909 0.410779
vt 0.491909 0.340802
vt 0.688501 0.340802
vt 0.688501 0.640829
vt 0.491909 0.640829
vn 0.000000 1.000000 0.000000
vn 0.000000 1.000000 0.000000
vn 0.000000 1.000000 0.000000
vn 0.000000 1.000000 0.000000
vn 0.000000 1.000000 0.000000
vn 0.000000 1.000000 0.000000
s 1
g polySurface9
usemtl initialShadingGroup
f 176/175/175 178/176/176 180/177/177 179/178/178
f 175/179/179 177/180/180 178/176/176 176/175/175
g default
v 236.163818 -0.000000 247.071671
v 236.163818 -0.000000 186.698914
v 236.163818 -0.000000 112.120773
v 236.163818 -0.000000 139.516830
v 164.122299 -0.000000 247.071655
v 164.122574 -0.000000 186.698914
v 164.122574 -0.000000 139.516830
v 164.122574 -0.000000 112.120773
vt 0.907179 0.178105
vt 0.782970 0.178105
vt 0.782969 0.074014
vt 0.907179 0.074014
vt 0.907179 0.259454
vt 0.782970 0.259454
vt 0.907179 0.306688
vt 0.782970 0.306688
vn 0.000000 1.000000 0.000000
vn 0.000000 1.000000 0.000000
vn 0.000000 1.000000 0.000000
vn 0.000000 1.000000 0.000000
vn 0.000000 1.000000 0.000000
vn 0.000000 1.000000 0.000000
vn 0.000000 1.000000 0.000000
vn 0.000000 1.000000 0.000000
s 1
g polySurface10
usemtl initialShadingGroup
f 182/181/181 186/182/182 185/183/183 181/184/184
f 184/185/185 187/186/186 186/182/182 182/181/181
f 183/187/187 188/188/188 187/186/186 184/185/185
