# This file uses centimeters as units for non-parametric coordinates.

mtllib FloorGroc.mtl
g default
v -290.000000 0.000000 -133.590607
v -152.915405 0.000000 -133.590607
v 166.656464 0.000000 -133.590607
v 290.000000 0.000000 -133.590607
v -290.000000 0.000000 -290.000000
v -152.915405 0.000000 -290.000000
v 166.656464 0.000000 -290.000000
v 290.000000 0.000000 -290.000000
vt 0.000000 0.666667
vt 0.333333 0.666667
vt 0.333333 1.000000
vt 0.000000 1.000000
vt 0.666667 0.666667
vt 0.666667 1.000000
vt 1.000000 0.666667
vt 1.000000 1.000000
vn 0.000000 1.000000 0.000000
vn 0.000000 1.000000 0.000000
vn 0.000000 1.000000 0.000000
vn 0.000000 1.000000 0.000000
vn 0.000000 1.000000 0.000000
vn 0.000000 1.000000 0.000000
vn 0.000000 1.000000 0.000000
vn 0.000000 1.000000 0.000000
s 1
g polySurface3
usemtl initialShadingGroup
f 1/1/1 2/2/2 6/3/3 5/4/4
f 2/2/2 3/5/5 7/6/6 6/3/3
f 3/5/5 4/7/7 8/8/8 7/6/6
g default
v -152.915405 -0.000000 145.647369
v 166.656464 -0.000000 145.647369
v -152.915405 0.000000 -133.590607
v 166.656464 0.000000 -133.590607
vt 0.333333 0.333333
vt 0.666667 0.333333
vt 0.666667 0.666667
vt 0.333333 0.666667
vn 0.000000 1.000000 0.000000
vn 0.000000 1.000000 0.000000
vn 0.000000 1.000000 0.000000
vn 0.000000 1.000000 0.000000
s off
g polySurface2
usemtl initialShadingGroup
f 9/9/9 10/10/10 12/11/11 11/12/12
g default
v -290.000000 -0.000000 290.000000
v -152.915405 -0.000000 290.000000
v 166.656464 -0.000000 290.000000
v 290.000000 -0.000000 290.000000
v -290.000000 -0.000000 145.647369
v 290.000000 -0.000000 145.647369
v -152.915405 -0.000000 145.647369
v 166.656464 -0.000000 145.647369
v 166.656464 0.000000 -133.590607
v 290.000000 0.000000 -133.590607
v -152.915405 0.000000 -133.590607
v -290.000000 0.000000 -133.590607
vt 0.000000 0.000000
vt 0.333333 0.000000
vt 0.333333 0.333333
vt 0.000000 0.333333
vt 0.666667 0.000000
vt 0.666667 0.333333
vt 0.333333 0.333333
vt 1.000000 0.000000
vt 1.000000 0.333333
vt 0.666667 0.333333
vt 0.333333 0.666667
vt 0.000000 0.666667
vt 1.000000 0.666667
vt 0.666667 0.666667
vn 0.000000 1.000000 0.000000
vn 0.000000 1.000000 0.000000
vn 0.000000 1.000000 0.000000
vn 0.000000 1.000000 0.000000
vn 0.000000 1.000000 0.000000
vn 0.000000 1.000000 0.000000
vn 0.000000 1.000000 0.000000
vn 0.000000 1.000000 0.000000
vn 0.000000 1.000000 0.000000
vn 0.000000 1.000000 0.000000
vn 0.000000 1.000000 0.000000
vn 0.000000 1.000000 0.000000
s 1
g polySurface1
usemtl initialShadingGroup
f 13/13/13 14/14/14 19/15/15 17/16/16
f 14/14/14 15/17/17 20/18/18 19/19/15
f 15/17/17 16/20/19 18/21/20 20/22/18
f 17/16/16 19/19/15 23/23/21 24/24/22
f 20/18/18 18/21/20 22/25/23 21/26/24
