# This file uses centimeters as units for non-parametric coordinates.

mtllib Planes.mtl
g default
v -29.000000 -0.000000 29.000000
v 29.000000 -0.000000 29.000000
v -29.000000 0.000000 -29.000000
v 29.000000 0.000000 -29.000000
v -10.612837 -0.000000 29.000000
v -13.588456 0.000000 -29.000000
v -29.000000 0.000000 -20.875244
v 29.000000 0.000000 -20.875244
v 10.583222 0.000000 -29.000000
v -29.000000 0.000000 -6.358935
v 29.000000 0.000000 -13.785002
v 17.681007 -0.000000 29.000000
v -29.000000 0.000000 -2.785764
v 29.000000 0.000000 -6.991343
v -29.000000 -0.000000 5.928793
v 29.000000 -0.000000 5.928793
v -0.518069 0.000000 -29.000000
v 8.479544 -0.000000 29.000000
v 29.000000 -0.000000 4.509322
v -29.000000 -0.000000 3.839617
v 29.000000 0.000000 -5.658784
v -29.000000 0.000000 0.592751
v -29.000000 -0.000000 12.022543
v 29.000000 -0.000000 13.030688
v -5.142070 0.000000 -29.000000
v 1.643200 -0.000000 29.000000
v -29.000000 -0.000000 20.974927
v -10.612837 -0.000000 20.974927
v 29.000000 -0.000000 20.974927
v -11.701827 0.000000 -29.000000
v -8.053140 -0.000000 29.000000
v -15.414862 -0.000000 29.000000
v -15.414862 -0.000000 20.974927
v -15.414862 -0.000000 12.022543
v -19.368537 0.000000 -29.000000
v -29.000000 0.000000 -13.617090
v -23.862845 0.000000 -11.960994
v -19.368537 -0.000000 13.537045
v -19.368537 -0.000000 22.489427
v -19.368570 -0.000000 29.000000
v -19.368537 0.000000 -20.875244
v -5.026003 0.000000 -20.875244
v -11.639446 0.000000 -20.875244
v -13.588456 0.000000 -20.875244
v -0.364158 0.000000 -20.875244
v 10.583222 0.000000 -20.875244
v 17.681009 0.000000 -13.785002
v -19.368537 0.000000 -4.844432
v -19.368537 0.000000 -3.049619
v -19.368537 0.000000 1.775759
v -19.368537 -0.000000 3.839629
v -19.368537 -0.000000 7.807225
v -15.414841 -0.000000 7.807225
v -19.368537 0.000000 -6.195940
v -10.612837 -0.000000 12.022543
v -10.612837 -0.000000 7.807227
v -8.053140 -0.000000 20.974927
v -8.053141 -0.000000 12.022541
v 1.646782 -0.000000 20.974927
v 17.681009 -0.000000 20.974927
v 8.484295 -0.000000 20.974927
v 17.681009 -0.000000 13.030687
v 17.681009 0.000000 -7.133811
v 19.100486 0.000000 -5.658784
v 19.100486 -0.000000 4.509322
v 17.681009 -0.000000 5.928793
vt 0.000000 0.859918
vt 0.166060 0.859918
vt 0.166060 1.000000
vt 0.000000 1.000000
vt 0.491068 1.000000
vt 0.493721 0.859918
vt 0.682469 0.859918
vt 0.682469 1.000000
vt 0.000000 0.609637
vt 0.166060 0.583525
vt 0.088572 0.706224
vt 0.000000 0.734777
vt 1.000000 0.859918
vt 0.804845 0.737672
vt 1.000000 0.737672
vt 1.000000 1.000000
vt 0.804845 0.622997
vt 1.000000 0.620540
vt 1.000000 0.422253
vt 0.829319 0.422253
vt 0.804845 0.397779
vt 1.000000 0.397779
vt 0.166060 0.365393
vt 0.166060 0.266603
vt 0.234227 0.292715
vt 0.234227 0.365393
vt 0.804845 0.275333
vt 1.000000 0.275333
vt 0.411344 1.000000
vt 0.413345 0.859918
vt 1.000000 0.597565
vt 0.829319 0.597565
vt 0.166060 0.112251
vt 0.234227 0.138363
vt 0.804845 0.138363
vt 1.000000 0.138363
vt 0.298244 1.000000
vt 0.299320 0.859918
vt 0.166059 0.000000
vt 0.234227 0.000000
vt 0.528331 0.000000
vt 0.528393 0.138363
vt 0.361153 0.138363
vt 0.361153 0.000000
vt 0.646199 0.000000
vt 0.646281 0.138363
vt 0.804845 0.000000
vt 1.000000 0.000000
vt 0.265716 1.000000
vt 0.265716 0.859918
vt 0.317020 0.138363
vt 0.361153 0.292715
vt 0.317020 0.292715
vt 0.317020 0.000000
vt 0.317020 0.365393
vt 0.166060 0.606827
vt 0.000000 0.548030
vt 0.166060 0.552580
vt 0.000000 0.489780
vt 0.166060 0.469383
vt 0.000000 0.433800
vt 0.166060 0.433800
vt 0.000000 0.397779
vt 0.000000 0.292715
vt 0.000000 0.138363
vt 0.000000 0.000000
vn 0.000000 1.000000 0.000000
vn 0.000000 1.000000 0.000000
vn -0.000000 1.000000 0.000000
vn -0.000000 1.000000 0.000000
vn 0.000000 1.000000 0.000000
vn 0.000000 1.000000 0.000000
vn 0.000000 1.000000 0.000000
vn 0.000000 1.000000 0.000000
vn -0.000000 1.000000 0.000000
vn -0.000000 1.000000 0.000000
vn -0.000000 1.000000 0.000000
vn 0.000000 1.000000 0.000000
vn 0.000000 1.000000 0.000000
vn -0.000000 1.000000 0.000000
vn -0.000000 1.000000 0.000000
vn 0.000000 1.000000 0.000000
vn -0.000000 1.000000 0.000000
vn -0.000000 1.000000 0.000000
vn 0.000000 1.000000 0.000000
vn 0.000000 1.000000 0.000000
vn 0.000000 1.000000 0.000000
vn 0.000000 1.000000 0.000000
vn -0.000000 1.000000 0.000000
vn -0.000000 1.000000 0.000000
vn 0.000000 1.000000 0.000000
vn 0.000000 1.000000 0.000000
vn 0.000000 1.000000 0.000000
vn 0.000000 1.000000 0.000000
vn 0.000000 1.000000 0.000000
vn 0.000000 1.000000 0.000000
vn -0.000000 1.000000 0.000000
vn -0.000000 1.000000 0.000000
vn -0.000000 1.000000 0.000000
vn 0.000000 1.000000 0.000000
vn 0.000000 1.000000 0.000000
vn 0.000000 1.000000 0.000000
vn 0.000000 1.000000 0.000000
vn 0.000000 1.000000 0.000000
vn 0.000000 1.000000 0.000000
vn -0.000000 1.000000 0.000000
vn 0.000000 1.000000 0.000000
vn 0.000000 1.000000 0.000000
vn 0.000000 1.000000 0.000000
vn 0.000000 1.000000 0.000000
vn 0.000000 1.000000 0.000000
vn 0.000000 1.000000 0.000000
vn 0.000000 1.000000 0.000000
vn 0.000000 1.000000 0.000000
vn 0.000000 1.000000 0.000000
vn 0.000000 1.000000 0.000000
vn 0.000000 1.000000 0.000000
vn 0.000000 1.000000 0.000000
vn 0.000000 1.000000 0.000000
vn 0.000000 1.000000 0.000000
vn -0.000000 1.000000 0.000000
vn -0.000000 1.000000 0.000000
vn -0.000000 1.000000 0.000000
vn -0.000000 1.000000 0.000000
vn -0.000000 1.000000 0.000000
vn -0.000000 1.000000 0.000000
vn -0.000000 1.000000 0.000000
vn -0.000000 1.000000 0.000000
vn -0.000000 1.000000 0.000000
vn -0.000000 1.000000 0.000000
vn -0.000000 1.000000 0.000000
vn 0.000000 1.000000 0.000000
s 1
g polySurface3
usemtl initialShadingGroup
f 7/1/1 41/2/2 35/3/3 3/4/4
f 17/5/5 45/6/6 46/7/7 9/8/8
f 10/9/9 48/10/10 37/11/11 36/12/12
f 8/13/13 46/7/7 47/14/14 11/15/15
f 9/8/8 46/7/7 8/13/13 4/16/16
f 47/14/14 63/17/17 14/18/18 11/15/15
f 19/19/19 65/20/20 66/21/21 16/22/22
f 52/23/23 38/24/24 34/25/25 53/26/26
f 16/22/22 66/21/21 62/27/27 24/28/28
f 25/29/29 42/30/30 45/6/6 17/5/5
f 21/31/31 64/32/32 65/20/20 19/19/19
f 14/18/18 63/17/17 64/32/32 21/31/31
f 38/24/24 39/33/33 33/34/34 34/25/25
f 24/28/28 62/27/27 60/35/35 29/36/36
f 30/37/37 43/38/38 42/30/30 25/29/29
f 39/33/33 40/39/39 32/40/40 33/34/34
f 26/41/41 59/42/42 57/43/43 31/44/44
f 18/45/45 61/46/46 59/42/42 26/41/41
f 60/35/35 61/46/46 18/45/45 12/47/47
f 29/36/36 60/35/35 12/47/47 2/48/48
f 6/49/49 44/50/50 43/38/38 30/37/37
f 28/51/51 57/43/43 58/52/52 55/53/53
f 31/44/44 57/43/43 28/51/51 5/54/54
f 33/34/34 32/40/40 5/54/54 28/51/51
f 34/25/25 33/34/34 28/51/51 55/53/53
f 53/26/26 34/25/25 55/53/53 56/55/55
f 35/3/3 41/2/2 44/50/50 6/49/49
f 36/12/12 37/11/11 41/2/2 7/1/1
f 41/2/2 37/11/11 48/10/10 54/56/56
f 13/57/57 49/58/58 48/10/10 10/9/9
f 22/59/59 50/60/60 49/58/58 13/57/57
f 20/61/61 51/62/62 50/60/60 22/59/59
f 15/63/63 52/23/23 51/62/62 20/61/61
f 23/64/64 38/24/24 52/23/23 15/63/63
f 27/65/65 39/33/33 38/24/24 23/64/64
f 1/66/66 40/39/39 39/33/33 27/65/65
g default
v 10.583222 0.000000 -20.875244
v 17.681009 0.000000 -13.785002
v 17.681009 0.000000 -7.133811
v 3.945077 0.000000 -7.133811
v -0.364156 0.000000 -11.458024
v -0.364158 0.000000 -20.875244
vt 0.493721 0.859918
vt 0.493721 0.697552
vt 0.804845 0.737672
vt 0.682469 0.859918
vt 0.568019 0.622997
vt 0.804845 0.622997
vn 0.000000 1.000000 0.000000
vn 0.000000 1.000000 0.000000
vn 0.000000 1.000000 0.000000
vn 0.000000 1.000000 0.000000
vn 0.000000 1.000000 0.000000
vn 0.000000 1.000000 0.000000
s 1
g polySurface4
usemtl initialShadingGroup
f 72/67/67 71/68/68 68/69/69 67/70/70
f 68/69/69 71/68/68 70/71/71 69/72/72
g default
v -10.612837 -0.000000 7.807227
v -10.612837 -0.000000 3.839613
v -15.414841 -0.000000 7.807225
v -15.563414 -0.000000 3.839611
v -15.563414 0.000000 -0.070236
v -19.368537 0.000000 -4.844432
v -19.368537 0.000000 -3.049619
v -19.368537 0.000000 1.775759
v -19.368537 -0.000000 3.839629
v -19.368537 -0.000000 7.807225
v -19.368537 0.000000 -6.195940
v -15.563415 0.000000 -6.195940
vt 0.166060 0.583525
vt 0.166060 0.552580
vt 0.231665 0.606827
vt 0.166060 0.606827
vt 0.166060 0.433800
vt 0.166060 0.365393
vt 0.234227 0.365393
vt 0.231665 0.433800
vt 0.166060 0.469383
vt 0.231665 0.501211
vt 0.317020 0.365393
vt 0.317020 0.433800
vn 0.000000 1.000000 0.000000
vn 0.000000 1.000000 0.000000
vn 0.000000 1.000000 0.000000
vn 0.000000 1.000000 0.000000
vn 0.000000 1.000000 0.000000
vn 0.000000 1.000000 0.000000
vn 0.000000 1.000000 0.000000
vn 0.000000 1.000000 0.000000
vn 0.000000 1.000000 0.000000
vn 0.000000 1.000000 0.000000
vn -0.000000 1.000000 0.000000
vn -0.000000 1.000000 0.000000
s 1
g polySurface5
usemtl initialShadingGroup
f 78/73/73 79/74/74 84/75/75 83/76/76
f 81/77/77 82/78/78 75/79/79 76/80/80
f 80/81/81 81/77/77 76/80/80 77/82/82
f 79/74/74 80/81/81 77/82/82 84/75/75
f 76/80/80 75/79/79 73/83/83 74/84/84
g default
v 19.100486 -0.000000 4.509322
v 19.100486 0.000000 -5.658784
v 17.681009 0.000000 -7.133811
v 3.945077 -0.000000 1.351707
v 8.493201 -0.000000 5.928793
v 17.681009 -0.000000 5.928793
v 3.945077 0.000000 -5.658784
v 3.945077 0.000000 -7.133811
vt 0.829319 0.422253
vt 0.568019 0.476695
vt 0.646435 0.397779
vt 0.804845 0.397779
vt 0.829319 0.597565
vt 0.568019 0.597565
vt 0.804845 0.622997
vt 0.568019 0.622997
vn -0.000000 1.000000 0.000000
vn -0.000000 1.000000 0.000000
vn -0.000000 1.000000 0.000000
vn -0.000000 1.000000 0.000000
vn -0.000000 1.000000 0.000000
vn -0.000000 1.000000 0.000000
vn 0.000000 1.000000 0.000000
vn 0.000000 1.000000 0.000000
s 1
g polySurface6
usemtl initialShadingGroup
f 85/85/85 88/86/86 89/87/87 90/88/88
f 86/89/89 91/90/90 88/86/86 85/85/85
f 87/91/91 92/92/92 91/90/90 86/89/89
g default
v 17.681009 -0.000000 5.928793
v 8.493201 -0.000000 5.928793
v 3.945077 -0.000000 1.351707
v 3.945077 0.000000 -5.658784
v -3.191282 0.000000 -11.248727
v 3.945077 0.000000 -7.133811
v -0.364156 0.000000 -11.458024
v -8.367746 0.000000 -6.255369
v -3.921089 0.000000 -1.717532
v -3.921089 -0.000000 3.839611
v -3.921091 -0.000000 7.415010
v 1.650329 -0.000000 13.030687
v 8.488997 -0.000000 13.030687
v 17.681009 -0.000000 13.030687
vt 0.804845 0.397779
vt 0.646435 0.397779
vt 0.646362 0.275333
vt 0.804845 0.275333
vt 0.568019 0.622997
vt 0.493721 0.697552
vt 0.444978 0.693944
vt 0.355729 0.607851
vt 0.568019 0.476695
vt 0.432395 0.433800
vt 0.432395 0.372155
vt 0.528454 0.275333
vt 0.432395 0.529613
vt 0.568019 0.597565
vn 0.000000 1.000000 0.000000
vn 0.000000 1.000000 0.000000
vn 0.000000 1.000000 0.000000
vn 0.000000 1.000000 0.000000
vn 0.000000 1.000000 0.000000
vn 0.000000 1.000000 0.000000
vn 0.000000 1.000000 0.000000
vn 0.000000 1.000000 0.000000
vn 0.000000 1.000000 0.000000
vn 0.000000 1.000000 0.000000
vn 0.000000 1.000000 0.000000
vn 0.000000 1.000000 0.000000
vn 0.000000 1.000000 0.000000
vn 0.000000 1.000000 0.000000
s 1
g polySurface7
usemtl initialShadingGroup
f 93/93/93 94/94/94 105/95/95 106/96/96
f 98/97/97 99/98/98 97/99/99 100/100/100
f 94/94/94 95/101/101 102/102/102 103/103/103
f 103/103/103 104/104/104 105/95/95 94/94/94
f 101/105/105 102/102/102 95/101/101 96/106/106
f 100/100/100 101/105/105 96/106/106 98/97/97
g default
v 8.488997 -0.000000 13.030687
v 8.484295 -0.000000 20.974927
v 1.650329 -0.000000 13.030687
v 1.646782 -0.000000 20.974927
vt 0.528393 0.138363
vt 0.646281 0.138363
vt 0.646362 0.275333
vt 0.528454 0.275333
vn 0.000000 1.000000 0.000000
vn 0.000000 1.000000 0.000000
vn 0.000000 1.000000 0.000000
vn 0.000000 1.000000 0.000000
s off
g polySurface8
usemtl initialShadingGroup
f 110/107/107 108/108/108 107/109/109 109/110/110
g default
v 17.681009 -0.000000 13.030687
v 17.681009 -0.000000 20.974927
v 8.488997 -0.000000 13.030687
v 8.484295 -0.000000 20.974927
vt 0.804845 0.275333
vt 0.646362 0.275333
vt 0.646281 0.138363
vt 0.804845 0.138363
vn 0.000000 1.000000 0.000000
vn 0.000000 1.000000 0.000000
vn 0.000000 1.000000 0.000000
vn 0.000000 1.000000 0.000000
s off
g polySurface9
usemtl initialShadingGroup
f 111/111/111 113/112/112 114/113/113 112/114/114
g default
v -12.564721 0.000000 -0.782042
v -3.921089 0.000000 -1.717532
v -3.921089 -0.000000 3.839611
v -7.990223 0.000000 -0.630291
v -7.446602 -0.000000 3.839612
v -13.504976 0.000000 -6.255371
v -11.006480 0.000000 -6.255369
v -8.367746 0.000000 -6.255369
v -10.612837 -0.000000 3.839613
v -15.563414 -0.000000 3.839611
v -15.563414 0.000000 -0.070236
v -15.563415 0.000000 -6.195940
vt 0.310233 0.607851
vt 0.362238 0.510867
vt 0.432395 0.529613
vt 0.355729 0.607851
vt 0.371610 0.433800
vt 0.432395 0.433800
vt 0.283367 0.513484
vt 0.267156 0.607851
vt 0.317020 0.433800
vt 0.231665 0.501211
vt 0.231665 0.433800
vt 0.231665 0.606827
vn 0.000000 1.000000 0.000000
vn 0.000000 1.000000 0.000000
vn 0.000000 1.000000 0.000000
vn 0.000000 1.000000 0.000000
vn 0.000000 1.000000 0.000000
vn 0.000000 1.000000 0.000000
vn 0.000000 1.000000 0.000000
vn 0.000000 1.000000 0.000000
vn 0.000000 1.000000 0.000000
vn 0.000000 1.000000 0.000000
vn 0.000000 1.000000 0.000000
vn 0.000000 1.000000 0.000000
s 1
g polySurface10
usemtl initialShadingGroup
f 121/115/115 118/116/116 116/117/117 122/118/118
f 118/116/116 119/119/119 117/120/120 116/117/117
f 115/121/121 118/116/116 121/115/115 120/122/122
f 123/123/123 119/119/119 118/116/116 115/121/121
f 125/124/124 124/125/125 123/123/123 115/121/121
f 126/126/126 125/124/124 115/121/121 120/122/122
g default
v -10.612837 -0.000000 12.022543
v -3.921091 -0.000000 7.415010
v -5.967682 -0.000000 9.629424
v -8.053141 -0.000000 12.022541
v -10.612837 -0.000000 7.807227
v -3.921089 -0.000000 3.839611
v -7.446602 -0.000000 3.839612
v -10.612837 -0.000000 3.839613
vt 0.432395 0.372155
vt 0.432395 0.433800
vt 0.371610 0.433800
vt 0.397109 0.333975
vt 0.317020 0.433800
vt 0.317020 0.365393
vt 0.317020 0.292715
vt 0.361153 0.292715
vn 0.000000 1.000000 0.000000
vn 0.000000 1.000000 0.000000
vn -0.000000 1.000000 0.000000
vn -0.000000 1.000000 0.000000
vn -0.000000 1.000000 0.000000
vn -0.000000 1.000000 0.000000
vn -0.000000 1.000000 0.000000
vn -0.000000 1.000000 0.000000
s 1
g polySurface11
usemtl initialShadingGroup
f 128/127/127 132/128/128 133/129/129 129/130/130
f 129/130/130 133/129/129 134/131/131 131/132/132
f 127/133/133 130/134/134 129/130/130 131/132/132
g default
v 1.650329 -0.000000 13.030687
v 1.646782 -0.000000 20.974927
v -8.053140 -0.000000 20.974927
v -3.921091 -0.000000 7.415010
v -5.967682 -0.000000 9.629424
v -8.053141 -0.000000 12.022541
vt 0.397109 0.333975
vt 0.361153 0.292715
vt 0.528454 0.275333
vt 0.432395 0.372155
vt 0.361153 0.138363
vt 0.528393 0.138363
vn 0.000000 1.000000 0.000000
vn -0.000000 1.000000 0.000000
vn -0.000000 1.000000 0.000000
vn 0.000000 1.000000 0.000000
vn -0.000000 1.000000 0.000000
vn -0.000000 1.000000 0.000000
s 1
g polySurface12
usemtl initialShadingGroup
f 139/135/135 140/136/136 135/137/137 138/138/138
f 140/136/136 137/139/139 136/140/140 135/137/137
g default
v -13.588456 0.000000 -20.875244
v -13.588456 0.000000 -13.785002
v -13.504976 0.000000 -6.255371
v -0.364158 0.000000 -20.875244
v -0.364156 0.000000 -11.458024
v -5.026003 0.000000 -20.875244
v -3.191282 0.000000 -11.248727
v -8.367746 0.000000 -6.255369
v -11.639446 0.000000 -20.875244
v -11.639446 0.000000 -12.841868
v -11.006480 0.000000 -6.255369
v -15.563415 0.000000 -6.195940
v -19.368537 0.000000 -6.195940
v -19.368537 0.000000 -20.875244
vt 0.413345 0.859918
vt 0.444978 0.693944
vt 0.493721 0.697552
vt 0.493721 0.859918
vt 0.299320 0.859918
vt 0.299320 0.721411
vt 0.355729 0.607851
vt 0.310233 0.607851
vt 0.265716 0.737672
vt 0.265716 0.859918
vt 0.267156 0.607851
vt 0.166060 0.606827
vt 0.231665 0.606827
vt 0.166060 0.859918
vn -0.000000 1.000000 0.000000
vn -0.000000 1.000000 0.000000
vn 0.000000 1.000000 0.000000
vn 0.000000 1.000000 0.000000
vn -0.000000 1.000000 0.000000
vn -0.000000 1.000000 0.000000
vn -0.000000 1.000000 0.000000
vn -0.000000 1.000000 0.000000
vn 0.000000 1.000000 0.000000
vn 0.000000 1.000000 0.000000
vn 0.000000 1.000000 0.000000
vn 0.000000 1.000000 0.000000
vn 0.000000 1.000000 0.000000
vn 0.000000 1.000000 0.000000
s 1
g polySurface2
usemtl initialShadingGroup
f 146/141/141 147/142/142 145/143/143 144/144/144
f 149/145/145 150/146/146 147/142/142 146/141/141
f 148/147/147 147/142/142 150/146/146 151/148/148
f 142/149/149 150/146/146 149/145/145 141/150/150
f 151/148/148 150/146/146 142/149/149 143/151/151
f 153/152/152 152/153/153 143/151/151 142/149/149
f 154/154/154 153/152/152 142/149/149 141/150/150
