# This file uses centimeters as units for non-parametric coordinates.

mtllib pencil.mtl
g default
v 0.905095 4.437114 -0.346410
v 0.922414 4.437114 -0.341770
v 0.935092 4.437114 -0.329091
v 0.935092 16.290995 -0.329091
v 0.922414 16.290995 -0.341770
v 0.905095 16.290995 -0.346410
v 0.515094 4.437114 -0.329091
v 0.527772 4.437114 -0.341770
v 0.545091 4.437114 -0.346410
v 0.545091 16.290995 -0.346410
v 0.527772 16.290995 -0.341770
v 0.515094 16.290995 -0.329091
v 0.335092 4.437114 0.017319
v 0.330451 4.437114 -0.000000
v 0.335092 4.437114 -0.017319
v 0.335092 16.290995 -0.017319
v 0.330451 16.290995 -0.000000
v 0.335092 16.290995 0.017319
v 0.545091 4.437114 0.346410
v 0.527772 4.437114 0.341770
v 0.515094 4.437114 0.329091
v 0.515094 16.290995 0.329091
v 0.527772 16.290995 0.341770
v 0.545091 16.290995 0.346410
v 0.935092 4.437114 0.329091
v 0.922414 4.437114 0.341770
v 0.905095 4.437114 0.346410
v 0.905095 16.290995 0.346410
v 0.922414 16.290995 0.341770
v 0.935092 16.290995 0.329091
v 1.115094 4.437114 -0.017319
v 1.119735 4.437114 -0.000000
v 1.115094 4.437114 0.017319
v 1.115094 16.290995 0.017319
v 1.119735 16.290995 -0.000000
v 1.115094 16.290995 -0.017319
v 1.022113 16.570715 0.007322
v 1.007015 16.570715 -0.092950
v 0.958532 16.570715 -0.182012
v 0.882511 16.570715 -0.249120
v 0.788124 16.570715 -0.286181
v 0.686752 16.570715 -0.288724
v 0.590625 16.570715 -0.256443
v 0.511335 16.570715 -0.193231
v 0.458447 16.570715 -0.106712
v 0.438340 16.570715 -0.007322
v 0.453438 16.570715 0.092950
v 0.501922 16.570715 0.182012
v 0.577942 16.570715 0.249120
v 0.672330 16.570715 0.286181
v 0.773701 16.570715 0.288724
v 0.869829 16.570715 0.256443
v 0.949118 16.570715 0.193230
v 1.002006 16.570715 0.106712
v 0.742259 17.274043 0.000302
v 0.741636 17.274043 -0.003832
v 0.739638 17.274043 -0.007503
v 0.736504 17.274043 -0.010269
v 0.732613 17.274043 -0.011797
v 0.728435 17.274043 -0.011902
v 0.724472 17.274043 -0.010571
v 0.721204 17.274043 -0.007965
v 0.719023 17.274043 -0.004399
v 0.718195 17.274043 -0.000302
v 0.718817 17.274043 0.003832
v 0.720816 17.274043 0.007503
v 0.723949 17.274043 0.010269
v 0.727840 17.274043 0.011797
v 0.732019 17.274043 0.011902
v 0.735981 17.274043 0.010571
v 0.739250 17.274043 0.007965
v 0.741430 17.274043 0.004399
v 0.730227 17.274043 0.000000
v 0.695096 4.437114 0.017319
v 0.705095 4.437114 -0.000000
v 0.715094 4.437114 -0.017319
v 0.735092 4.437114 -0.017319
v 0.715094 4.437114 0.017319
v 0.735092 4.437114 0.017319
v 0.745091 4.437114 -0.000000
v 0.755090 4.437114 -0.017319
v 0.695096 4.437114 -0.017319
v 0.725093 4.437114 0.034638
v 0.725093 4.437114 -0.034638
v 0.755090 4.437114 0.017319
v 0.725093 4.437114 0.000000
vt 0.377083 0.312500
vt 0.414584 0.688440
vt 0.418750 0.312500
vt 0.456250 0.688440
vt 0.460416 0.312500
vt 0.497917 0.688440
vt 0.502083 0.312500
vt 0.539584 0.688440
vt 0.543750 0.312500
vt 0.581250 0.688440
vt 0.585416 0.312500
vt 0.622917 0.688440
vt 0.622917 0.312500
vt 0.377083 0.688440
vt 0.414584 0.312500
vt 0.418750 0.688440
vt 0.456250 0.312500
vt 0.460416 0.688440
vt 0.497917 0.312500
vt 0.502083 0.688440
vt 0.539584 0.312500
vt 0.543750 0.688440
vt 0.581250 0.312500
vt 0.585416 0.688440
vt 0.625000 0.312500
vt 0.375000 0.688440
vt 0.416667 0.312500
vt 0.416667 0.688440
vt 0.458333 0.312500
vt 0.458333 0.688440
vt 0.500000 0.312500
vt 0.500000 0.688440
vt 0.541667 0.312500
vt 0.541667 0.688440
vt 0.583333 0.312500
vt 0.583333 0.688440
vt 0.375000 0.312500
vt 0.388889 0.312500
vt 0.388889 0.688440
vt 0.375000 0.688440
vt 0.402778 0.312500
vt 0.402778 0.688440
vt 0.416667 0.312500
vt 0.416667 0.688440
vt 0.430556 0.312500
vt 0.430556 0.688440
vt 0.444444 0.312500
vt 0.444444 0.688440
vt 0.458333 0.312500
vt 0.458333 0.688440
vt 0.472222 0.312500
vt 0.472222 0.688440
vt 0.486111 0.312500
vt 0.486111 0.688440
vt 0.500000 0.312500
vt 0.500000 0.688440
vt 0.513889 0.312500
vt 0.513889 0.688440
vt 0.527778 0.312500
vt 0.527778 0.688440
vt 0.541667 0.312500
vt 0.541667 0.688440
vt 0.555556 0.312500
vt 0.555556 0.688440
vt 0.569445 0.312500
vt 0.569445 0.688440
vt 0.583333 0.312500
vt 0.583333 0.688440
vt 0.597222 0.312500
vt 0.597222 0.688440
vt 0.611111 0.312500
vt 0.611111 0.688440
vt 0.625000 0.312500
vt 0.625000 0.688440
vt 0.646827 0.897191
vt 0.619694 0.944186
vt 0.500000 0.837500
vt 0.578125 0.979066
vt 0.527133 0.997626
vt 0.472867 0.997626
vt 0.421875 0.979066
vt 0.380306 0.944186
vt 0.353173 0.897191
vt 0.343750 0.843750
vt 0.353173 0.790309
vt 0.380306 0.743315
vt 0.421875 0.708434
vt 0.472867 0.689874
vt 0.527133 0.689874
vt 0.578125 0.708434
vt 0.619694 0.743314
vt 0.646827 0.790309
vt 0.656250 0.843750
vt 0.516186 0.312500
vt 0.517666 0.312500
vt 0.519178 0.312500
vt 0.522489 0.312500
vt 0.519284 0.312500
vt 0.522382 0.312500
vt 0.524000 0.312500
vt 0.525801 0.312500
vt 0.515866 0.312500
vt 0.521314 0.312500
vt 0.511700 0.312500
vt 0.525480 0.312500
vt 0.520887 0.312500
vn 0.012298 0.000000 -0.999924
vn 0.012298 0.000000 -0.999924
vn -0.012297 0.000000 -0.999924
vn -0.012297 0.000000 -0.999924
vn -0.859811 0.000000 -0.510613
vn -0.859811 0.000000 -0.510613
vn -0.872109 0.000000 -0.489312
vn -0.872109 0.000000 -0.489312
vn -0.872109 0.000000 0.489312
vn -0.872109 0.000000 0.489312
vn -0.859811 0.000000 0.510612
vn -0.859811 0.000000 0.510612
vn -0.012298 0.000000 0.999924
vn -0.012298 0.000000 0.999924
vn 0.012298 0.000000 0.999924
vn 0.012298 0.000000 0.999924
vn 0.859811 0.000000 0.510612
vn 0.859811 0.000000 0.510612
vn 0.872109 0.000000 0.489312
vn 0.872109 0.000000 0.489312
vn 0.872109 0.000000 -0.489312
vn 0.872109 0.000000 -0.489312
vn 0.859811 0.000000 -0.510612
vn 0.859811 0.000000 -0.510612
vn 0.707109 0.000000 -0.707105
vn 0.707109 0.000000 -0.707105
vn 0.258818 0.000000 -0.965926
vn 0.258818 0.000000 -0.965926
vn -0.258820 0.000000 -0.965926
vn -0.258820 0.000000 -0.965926
vn -0.707105 0.000000 -0.707109
vn -0.707105 0.000000 -0.707109
vn -0.965926 0.000000 -0.258819
vn -0.965926 0.000000 -0.258819
vn -0.965926 0.000000 0.258819
vn -0.965926 0.000000 0.258819
vn -0.707108 0.000000 0.707106
vn -0.707108 0.000000 0.707106
vn -0.258819 0.000000 0.965926
vn -0.258819 0.000000 0.965926
vn 0.258819 0.000000 0.965926
vn 0.258819 0.000000 0.965926
vn 0.707106 0.000000 0.707107
vn 0.707106 0.000000 0.707107
vn 0.965926 0.000000 0.258821
vn 0.965926 0.000000 0.258821
vn 0.965925 0.000000 -0.258820
vn 0.965925 0.000000 -0.258820
vn 0.928816 0.369809 0.023299
vn 0.880769 0.369809 -0.295784
vn 0.880769 0.369809 -0.295784
vn 0.928815 0.369809 0.023299
vn 0.726492 0.369810 -0.579180
vn 0.726492 0.369810 -0.579181
vn 0.484588 0.369811 -0.792726
vn 0.484588 0.369811 -0.792726
vn 0.184235 0.369810 -0.910658
vn 0.184235 0.369810 -0.910658
vn -0.138340 0.369809 -0.918751
vn -0.138340 0.369809 -0.918751
vn -0.444229 0.369810 -0.816028
vn -0.444229 0.369810 -0.816028
vn -0.696539 0.369811 -0.614876
vn -0.696539 0.369811 -0.614876
vn -0.864832 0.369809 -0.339569
vn -0.864832 0.369809 -0.339569
vn -0.928815 0.369809 -0.023299
vn -0.928815 0.369809 -0.023299
vn -0.880769 0.369809 0.295784
vn -0.880769 0.369809 0.295784
vn -0.726491 0.369809 0.579183
vn -0.726490 0.369809 0.579183
vn -0.484587 0.369810 0.792727
vn -0.484588 0.369810 0.792727
vn -0.184235 0.369811 0.910658
vn -0.184235 0.369811 0.910658
vn 0.138340 0.369810 0.918751
vn 0.138340 0.369810 0.918751
vn 0.444229 0.369810 0.816028
vn 0.444229 0.369810 0.816028
vn 0.696538 0.369810 0.614878
vn 0.696538 0.369810 0.614878
vn 0.864831 0.369809 0.339572
vn 0.864831 0.369809 0.339571
vn 0.000000 1.000000 0.000000
vn 0.000000 1.000000 0.000000
vn 0.000000 1.000000 0.000000
vn 0.000000 1.000000 0.000000
vn 0.000000 1.000000 0.000000
vn 0.000000 1.000000 0.000000
vn 0.000000 1.000000 0.000150
vn 0.000000 1.000000 0.000150
vn 0.000000 1.000000 0.000000
vn 0.000000 1.000000 0.000000
vn 0.000000 1.000000 0.000000
vn 0.000000 1.000000 0.000000
vn 0.000000 1.000000 0.000000
vn 0.000000 1.000000 0.000000
vn 0.000000 1.000000 0.000000
vn 0.000000 1.000000 -0.000150
vn 0.000000 1.000000 -0.000150
vn 0.000000 1.000000 0.000000
vn 0.000000 1.000000 0.000000
vn -0.291537 0.335568 -0.895768
vn -0.291537 0.335568 -0.895768
vn -0.291537 0.335568 -0.895768
vn -0.291537 0.335568 -0.895768
vn -0.596492 0.348807 -0.722863
vn -0.596492 0.348807 -0.722863
vn -0.596492 0.348807 -0.722863
vn -0.596492 0.348807 -0.722863
vn -0.841935 0.220878 -0.492298
vn -0.841935 0.220879 -0.492298
vn -0.841935 0.220878 -0.492298
vn -0.841935 0.220878 -0.492298
vn -0.917910 0.345766 -0.194648
vn -0.917910 0.345766 -0.194648
vn -0.917910 0.345766 -0.194648
vn -0.917909 0.345766 -0.194648
vn -0.922313 0.354074 0.154824
vn -0.922313 0.354074 0.154824
vn -0.922313 0.354074 0.154824
vn -0.922313 0.354074 0.154824
vn -0.847292 0.220972 0.482978
vn -0.847292 0.220972 0.482978
vn -0.847292 0.220972 0.482978
vn -0.847292 0.220972 0.482978
vn -0.628670 0.341060 0.698894
vn -0.628670 0.341060 0.698894
vn -0.628670 0.341060 0.698894
vn -0.628670 0.341060 0.698894
vn -0.328332 0.344466 0.879512
vn -0.328331 0.344466 0.879512
vn -0.328332 0.344466 0.879512
vn -0.328332 0.344466 0.879512
vn -0.005393 0.206201 0.978495
vn -0.005393 0.206201 0.978495
vn -0.005393 0.206201 0.978495
vn -0.005393 0.206201 0.978495
vn 0.292568 0.326017 0.898953
vn 0.292568 0.326017 0.898953
vn 0.292568 0.326017 0.898953
vn 0.292568 0.326017 0.898953
vn 0.600955 0.329357 0.728270
vn 0.600955 0.329357 0.728270
vn 0.600955 0.329357 0.728270
vn 0.600955 0.329357 0.728270
vn 0.847332 0.191193 0.495454
vn 0.847332 0.191193 0.495454
vn 0.847331 0.191193 0.495454
vn 0.847332 0.191193 0.495454
vn 0.928255 0.315591 0.196836
vn 0.928255 0.315591 0.196836
vn 0.928255 0.315591 0.196836
vn 0.928255 0.315591 0.196836
vn 0.933025 0.323940 -0.156615
vn 0.933025 0.323940 -0.156615
vn 0.933025 0.323940 -0.156615
vn 0.933025 0.323940 -0.156615
vn 0.852758 0.191096 -0.486093
vn 0.852758 0.191096 -0.486093
vn 0.852758 0.191096 -0.486093
vn 0.852758 0.191096 -0.486093
vn 0.633507 0.320432 -0.704268
vn 0.633507 0.320432 -0.704268
vn 0.633507 0.320432 -0.704268
vn 0.633506 0.320432 -0.704268
vn 0.329679 0.333778 -0.883122
vn 0.329679 0.333778 -0.883122
vn 0.329679 0.333778 -0.883122
vn 0.329679 0.333778 -0.883122
vn 0.005394 0.206011 -0.978535
vn 0.005394 0.206011 -0.978535
vn 0.005394 0.206011 -0.978535
vn 0.005394 0.206011 -0.978535
vn 0.000000 -1.000000 -0.000001
vn 0.000000 -1.000000 0.000000
vn 0.000000 -1.000000 -0.000004
vn 0.000000 -1.000000 -0.000005
vn 0.000000 -1.000000 0.000001
vn 0.000000 -1.000000 -0.000000
vn 0.000000 -1.000000 0.000001
vn 0.000000 -1.000000 -0.000000
vn 0.000000 -1.000000 -0.000001
vn 0.000000 -1.000000 -0.000001
vn 0.000000 -1.000000 0.000000
vn 0.000000 -1.000000 -0.000001
vn 0.000000 -1.000000 -0.000001
vn 0.000000 -1.000000 0.000000
vn 0.000000 -1.000000 -0.000001
vn 0.000000 -1.000000 0.000000
vn 0.000000 -1.000000 -0.000001
vn 0.000000 -1.000000 -0.000001
vn 0.000000 -1.000000 -0.000001
vn 0.000000 -1.000000 -0.000002
vn 0.000000 -1.000000 -0.000002
vn 0.000000 -1.000000 0.000002
vn 0.000000 -1.000000 0.000002
vn 0.000000 -1.000000 0.000003
vn 0.000000 -1.000000 0.000003
vn 0.000000 -1.000000 -0.000004
vn 0.000000 -1.000000 -0.000005
vn 0.000000 -1.000000 -0.000002
vn 0.000000 -1.000000 -0.000002
vn 0.000000 -1.000000 0.000000
vn 0.000000 -1.000000 -0.000001
s 1
g pCylinder4
usemtl initialShadingGroup
f 6/14/1 1/1/2 9/15/3 10/2/4
s 2
f 12/16/5 7/3/6 15/17/7 16/4/8
s 3
f 18/18/9 13/5/10 21/19/11 22/6/12
s 4
f 24/20/13 19/7/14 27/21/15 28/8/16
s 5
f 30/22/17 25/9/18 33/23/19 34/10/20
s 6
f 36/24/21 31/11/22 3/13/23 4/12/24
f 3/13/23 2/25/25 5/26/26 4/12/24
s 1
f 2/25/27 1/1/2 6/14/1 5/26/28
f 9/15/3 8/27/29 11/28/30 10/2/4
s 2
f 8/27/31 7/3/6 12/16/5 11/28/32
f 15/17/7 14/29/33 17/30/34 16/4/8
s 3
f 14/29/35 13/5/10 18/18/9 17/30/36
f 21/19/11 20/31/37 23/32/38 22/6/12
s 4
f 20/31/39 19/7/14 24/20/13 23/32/40
f 27/21/15 26/33/41 29/34/42 28/8/16
s 5
f 26/33/43 25/9/18 30/22/17 29/34/44
f 33/23/19 32/35/45 35/36/46 34/10/20
s 6
f 32/35/47 31/11/22 36/24/21 35/36/48
s 7
f 37/37/49 38/38/50 56/39/51 55/40/52
f 38/38/50 39/41/53 57/42/54 56/39/51
f 39/41/53 40/43/55 58/44/56 57/42/54
f 40/43/55 41/45/57 59/46/58 58/44/56
f 41/45/57 42/47/59 60/48/60 59/46/58
f 42/47/59 43/49/61 61/50/62 60/48/60
f 43/49/61 44/51/63 62/52/64 61/50/62
f 44/51/63 45/53/65 63/54/66 62/52/64
f 45/53/65 46/55/67 64/56/68 63/54/66
f 46/55/67 47/57/69 65/58/70 64/56/68
f 47/57/69 48/59/71 66/60/72 65/58/70
f 48/59/71 49/61/73 67/62/74 66/60/72
f 49/61/73 50/63/75 68/64/76 67/62/74
f 50/63/75 51/65/77 69/66/78 68/64/76
f 51/65/77 52/67/79 70/68/80 69/66/78
f 52/67/79 53/69/81 71/70/82 70/68/80
f 53/69/81 54/71/83 72/72/84 71/70/82
f 54/71/83 37/73/49 55/74/52 72/72/84
s 8
f 55/75/85 56/76/86 73/77/87
f 56/76/86 57/78/88 73/77/87
f 57/78/88 58/79/89 73/77/87
f 58/79/89 59/80/90 73/77/87
f 59/80/90 60/81/91 73/77/87
f 60/81/91 61/82/92 73/77/87
f 61/82/92 62/83/93 73/77/87
f 62/83/93 63/84/94 73/77/87
f 63/84/94 64/85/95 73/77/87
f 64/85/95 65/86/96 73/77/87
f 65/86/96 66/87/97 73/77/87
f 66/87/97 67/88/98 73/77/87
f 67/88/98 68/89/99 73/77/87
f 68/89/99 69/90/100 73/77/87
f 69/90/100 70/91/101 73/77/87
f 70/91/101 71/92/102 73/77/87
f 71/92/102 72/93/103 73/77/87
f 72/93/103 55/75/85 73/77/87
s off
f 10/2/104 11/28/105 43/49/106 42/47/107
f 11/28/108 12/16/109 44/51/110 43/49/111
f 12/16/112 16/4/113 45/53/114 44/51/115
f 16/4/116 17/30/117 46/55/118 45/53/119
f 17/30/120 18/18/121 47/57/122 46/55/123
f 18/18/124 22/6/125 48/59/126 47/57/127
f 22/6/128 23/32/129 49/61/130 48/59/131
f 23/32/132 24/20/133 50/63/134 49/61/135
f 24/20/136 28/8/137 51/65/138 50/63/139
f 28/8/140 29/34/141 52/67/142 51/65/143
f 29/34/144 30/22/145 53/69/146 52/67/147
f 30/22/148 34/10/149 54/71/150 53/69/151
f 34/10/152 35/36/153 37/73/154 54/71/155
f 35/36/156 36/24/157 38/38/158 37/37/159
f 36/24/160 4/12/161 39/41/162 38/38/163
f 4/12/164 5/26/165 40/43/166 39/41/167
f 5/26/168 6/14/169 41/45/170 40/43/171
f 6/14/172 10/2/173 42/47/174 41/45/175
s 9
f 21/19/176 74/94/177 78/98/178 20/31/179
f 75/95/180 86/106/181 78/98/178 74/94/177
f 13/5/182 74/94/177 21/19/176
f 14/29/183 75/95/180 74/94/177 13/5/182
f 15/17/184 82/102/185 75/95/180 14/29/183
f 7/3/186 82/102/185 15/17/184
f 81/101/187 3/13/188 31/11/189
f 80/100/190 81/101/187 31/11/189 32/35/191
f 19/7/192 83/103/193 27/21/194
f 20/31/179 78/98/178 83/103/193 19/7/192
f 77/97/195 2/25/196 3/13/188 81/101/187
f 9/15/197 84/104/198 76/96/199 8/27/200
f 26/33/201 79/99/202 85/105/203 25/9/204
f 27/21/194 83/103/193 79/99/202 26/33/201
f 8/27/200 76/96/199 82/102/185 7/3/186
f 9/15/197 1/1/205 84/104/198
f 77/97/195 84/104/198 1/1/205 2/25/196
f 85/105/203 80/100/190 32/35/191 33/23/206
f 25/9/204 85/105/203 33/23/206
f 86/106/181 79/99/202 83/103/193 78/98/178
f 77/97/195 86/106/181 76/96/199 84/104/198
f 80/100/190 85/105/203 79/99/202 86/106/181
f 76/96/199 86/106/181 75/95/180 82/102/185
f 80/100/190 86/106/181 77/97/195 81/101/187
