# This file uses centimeters as units for non-parametric coordinates.

mtllib trashcan.mtl
g default
v -0.716649 -0.074969 0.438796
v -0.506438 -0.074969 0.645087
v -0.655080 -0.074969 0.584665
v -1.526841 3.636375 0.788419
v -1.465936 3.636375 0.935334
v -1.318898 3.636375 0.996189
v 0.716649 -0.074969 0.438796
v 0.655080 -0.074969 0.584665
v 0.506438 -0.074969 0.645087
v 1.318898 3.636375 0.996189
v 1.465936 3.636375 0.935334
v 1.526841 3.636375 0.788419
v -1.335827 3.712244 1.003366
v -1.482606 3.712244 0.942621
v -1.543403 3.712244 0.795968
v -1.443403 3.712244 0.697208
v -1.382152 3.712244 0.842984
v -1.234278 3.712244 0.903366
v 1.543403 3.712244 0.795968
v 1.482606 3.712244 0.942621
v 1.335827 3.712244 1.003366
v 1.234278 3.712244 0.903366
v 1.382152 3.712244 0.842984
v 1.443403 3.712244 0.697208
v 1.335827 3.712244 -1.003366
v 1.482606 3.712244 -0.942621
v 1.543403 3.712244 -0.795968
v 1.443403 3.712244 -0.697208
v 1.382152 3.712244 -0.842984
v 1.234278 3.712244 -0.903366
v -1.543403 3.712244 -0.795968
v -1.482606 3.712244 -0.942621
v -1.335827 3.712244 -1.003366
v -1.234278 3.712244 -0.903366
v -1.382152 3.712244 -0.842984
v -1.443403 3.712244 -0.697208
v -0.659420 0.154537 0.206372
v -0.598117 0.154537 0.352270
v -0.450120 0.154537 0.412703
v 0.659420 0.154537 0.206372
v 0.450120 0.154537 0.412703
v 0.598117 0.154537 0.352270
v 0.450120 0.154537 -0.412703
v 0.659420 0.154537 -0.206372
v 0.598117 0.154537 -0.352270
v -0.659420 0.154537 -0.206372
v -0.450120 0.154537 -0.412703
v -0.598117 0.154537 -0.352270
v 0.655080 -0.074969 -0.584665
v 0.716649 -0.074969 -0.438796
v 0.506438 -0.074969 -0.645087
v 1.526841 3.636375 -0.788419
v 1.465936 3.636375 -0.935334
v 1.318898 3.636375 -0.996189
v -0.655080 -0.074969 -0.584665
v -0.506438 -0.074969 -0.645087
v -0.716649 -0.074969 -0.438796
v -1.318898 3.636375 -0.996189
v -1.465936 3.636375 -0.935334
v -1.526841 3.636375 -0.788419
v -1.329759 3.434831 1.003274
v -1.476796 3.434831 0.942420
v -1.537701 3.434831 0.795505
v 1.329759 3.434831 1.003274
v 1.476796 3.434831 0.942420
v 1.537701 3.434831 0.795505
v 1.346435 3.511240 1.010503
v 1.493475 3.511240 0.949649
v 1.554381 3.511240 0.802736
v -1.346435 3.511240 1.010503
v -1.493475 3.511240 0.949649
v -1.554381 3.511240 0.802736
v -1.346435 3.511240 -1.010503
v -1.493475 3.511240 -0.949649
v -1.554381 3.511240 -0.802736
v 1.346435 3.511240 -1.010503
v 1.493475 3.511240 -0.949649
v 1.554381 3.511240 -0.802736
v 1.329758 3.434831 -1.003274
v 1.476796 3.434831 -0.942420
v 1.537701 3.434831 -0.795505
v -1.329758 3.434831 -1.003274
v -1.476796 3.434831 -0.942420
v -1.537701 3.434831 -0.795505
v -0.506439 -0.074969 0.438796
v -0.506439 -0.074969 -0.438796
v 0.506438 -0.074969 -0.438796
v 0.506438 -0.074969 0.438796
vt 0.411666 -0.000000
vt 0.664973 0.000000
vt 0.375000 0.275838
vt 0.625000 0.474162
vt 0.588334 0.750000
vt 0.164974 0.000000
vt 0.391904 0.244992
vt 0.608277 0.250000
vt 0.391723 0.500000
vt 0.608096 0.505008
vt 0.650886 0.244992
vt 0.849299 0.250000
vt 0.150886 0.244992
vt 0.349299 0.250000
vt 0.391812 0.250000
vt 0.606890 0.250000
vt 0.625000 0.275838
vt 0.625000 0.471474
vt 0.608188 0.500000
vt 0.393110 0.500000
vt 0.375000 0.474162
vt 0.375000 0.278526
vt 0.393111 0.250000
vt 0.625000 0.278526
vt 0.606889 0.500000
vt 0.375000 0.471474
vt 0.588334 0.000000
vt 0.607976 0.244992
vt 0.835027 0.000000
vt 0.848929 0.244992
vt 0.392024 0.505008
vt 0.411666 0.750000
vt 0.335026 -0.000000
vt 0.348929 0.244992
vt 0.392024 0.244992
vt 0.608096 0.244992
vt 0.608188 0.250000
vt 0.391723 0.250000
vt 0.391812 0.500000
vt 0.608277 0.500000
vt 0.607976 0.505008
vt 0.391904 0.505008
vt 0.651071 0.244992
vt 0.849113 0.244992
vt 0.849162 0.250000
vt 0.650701 0.250000
vt 0.151071 0.244992
vt 0.349114 0.244992
vt 0.349162 0.250000
vt 0.150701 0.250000
vt 0.625000 0.789974
vt 0.625000 0.960026
vt 0.588334 1.000000
vt 0.411666 1.000000
vt 0.375000 0.960026
vt 0.375000 0.789974
vt 0.375000 0.312494
vt 0.414675 0.250000
vt 0.585325 0.250000
vt 0.625000 0.312494
vt 0.625000 0.437506
vt 0.585325 0.500000
vt 0.414675 0.500000
vt 0.375000 0.437506
vt 0.650838 0.250000
vt 0.150838 0.250000
vt 0.375000 1.000000
vt 0.375000 0.000000
vt 0.375000 0.244992
vt 0.625000 1.000000
vt 0.625000 0.000000
vt 0.625000 0.244992
vt 0.375000 0.250000
vt 0.375000 0.250000
vt 0.625000 0.250000
vt 0.625000 0.250000
vt 0.875000 0.250000
vt 0.625000 0.500000
vt 0.625000 0.500000
vt 0.375000 0.500000
vt 0.125000 0.250000
vt 0.375000 0.500000
vt 0.375000 0.250000
vt 0.625000 0.250000
vt 0.625000 0.500000
vt 0.375000 0.500000
vt 0.625000 0.750000
vt 0.875000 0.000000
vt 0.625000 0.505008
vt 0.875000 0.244992
vt 0.375000 0.750000
vt 0.125000 0.000000
vt 0.125000 0.244992
vt 0.375000 0.505008
vt 0.375000 0.244992
vt 0.625000 0.244992
vt 0.625000 0.250000
vt 0.375000 0.250000
vt 0.375000 0.500000
vt 0.125000 0.250000
vt 0.875000 0.250000
vt 0.625000 0.500000
vt 0.875000 0.244992
vt 0.625000 0.505008
vt 0.125000 0.244992
vt 0.375000 0.505008
vt 0.411665 0.960026
vt 0.411665 0.789974
vt 0.588334 0.789974
vt 0.588334 0.960026
vn -0.975742 -0.216239 0.034192
vn -0.897494 -0.231424 0.375428
vn -0.897494 -0.231424 0.375428
vn -0.974369 -0.217967 0.055632
vn -0.374083 -0.168039 0.912044
vn -0.023804 -0.099310 0.994772
vn -0.040406 -0.102854 0.993876
vn -0.374083 -0.168039 0.912044
vn 0.023804 -0.099310 0.994772
vn 0.374083 -0.168039 0.912044
vn 0.374083 -0.168039 0.912044
vn 0.040406 -0.102854 0.993876
vn 0.897494 -0.231424 0.375428
vn 0.975742 -0.216239 0.034192
vn 0.974369 -0.217967 0.055632
vn 0.897494 -0.231424 0.375428
vn 0.000000 1.000000 0.000000
vn 0.000000 1.000000 -0.000000
vn 0.000000 1.000000 0.000000
vn 0.000000 1.000000 0.000000
vn 0.000000 1.000000 0.000001
vn 0.000000 1.000000 0.000001
vn 0.000000 1.000000 0.000001
vn 0.000000 1.000000 0.000000
vn 0.000000 1.000000 0.000000
vn 0.000000 1.000000 0.000001
vn 0.000000 1.000000 0.000000
vn 0.000000 1.000000 0.000000
vn 0.000000 1.000000 -0.000000
vn 0.000000 1.000000 0.000000
vn 0.000000 1.000000 -0.000000
vn 0.000000 1.000000 -0.000000
vn 0.000000 1.000000 -0.000001
vn 0.000000 1.000000 -0.000001
vn 0.000000 1.000000 -0.000001
vn 0.000000 1.000000 0.000000
vn 0.000000 1.000000 0.000000
vn 0.000000 1.000000 -0.000001
vn 0.000000 1.000000 0.000000
vn 0.000000 1.000000 0.000000
vn 0.975742 -0.216239 -0.034192
vn 0.897494 -0.231424 -0.375428
vn 0.897494 -0.231424 -0.375428
vn 0.974369 -0.217967 -0.055632
vn 0.374083 -0.168039 -0.912044
vn 0.023804 -0.099310 -0.994772
vn 0.040406 -0.102854 -0.993876
vn 0.374083 -0.168039 -0.912044
vn -0.023804 -0.099310 -0.994772
vn -0.374083 -0.168039 -0.912044
vn -0.374083 -0.168039 -0.912044
vn -0.040406 -0.102854 -0.993876
vn -0.897495 -0.231424 -0.375428
vn -0.975742 -0.216239 -0.034192
vn -0.974369 -0.217967 -0.055632
vn -0.897495 -0.231425 -0.375428
vn -0.016664 -0.097773 0.995069
vn 0.016664 -0.097773 0.995069
vn 0.024201 0.003243 0.999702
vn -0.024201 0.003243 0.999702
vn -0.024201 0.003244 -0.999702
vn 0.024201 0.003244 -0.999702
vn 0.016664 -0.097773 -0.995069
vn -0.016664 -0.097773 -0.995069
vn 0.976120 -0.215601 0.026573
vn 0.976120 -0.215601 -0.026573
vn 0.999070 -0.015544 -0.040218
vn 0.999070 -0.015544 0.040218
vn -0.976120 -0.215601 -0.026574
vn -0.976120 -0.215601 0.026573
vn -0.999070 -0.015544 0.040218
vn -0.999070 -0.015544 -0.040218
vn 0.041222 0.145417 -0.988511
vn -0.041222 0.145417 -0.988511
vn -0.026695 0.142346 -0.989457
vn 0.026695 0.142346 -0.989457
vn -0.970968 0.225122 -0.080873
vn -0.970968 0.225122 0.080873
vn -0.974624 0.220270 0.039868
vn -0.974624 0.220270 -0.039868
vn -0.041222 0.145417 0.988511
vn 0.041222 0.145417 0.988511
vn 0.026695 0.142346 0.989457
vn -0.026695 0.142346 0.989457
vn 0.970968 0.225122 0.080873
vn 0.970968 0.225122 -0.080873
vn 0.974624 0.220270 -0.039868
vn 0.974624 0.220270 0.039868
vn 0.020543 -0.036233 -0.999132
vn -0.020543 -0.036233 -0.999132
vn -0.023086 -0.036368 -0.999072
vn 0.023086 -0.036368 -0.999072
vn 0.020327 0.036547 0.999125
vn -0.020327 0.036547 0.999125
vn -0.020327 0.036547 -0.999125
vn 0.020327 0.036547 -0.999125
vn -0.020543 -0.036233 0.999132
vn 0.020543 -0.036233 0.999132
vn 0.023086 -0.036368 0.999072
vn -0.023086 -0.036368 0.999072
vn -0.997993 -0.054887 -0.031580
vn -0.997993 -0.054887 0.031580
vn -0.997715 -0.055135 0.039059
vn -0.997715 -0.055135 -0.039059
vn 0.997960 0.055563 -0.031445
vn 0.997960 0.055563 0.031445
vn 0.997993 -0.054887 0.031580
vn 0.997993 -0.054887 -0.031580
vn 0.997715 -0.055135 -0.039059
vn 0.997715 -0.055135 0.039059
vn -0.997960 0.055563 0.031445
vn -0.997960 0.055563 -0.031445
vn 0.000000 1.000000 -0.000000
vn 0.000000 1.000000 -0.000000
vn 0.000000 1.000000 -0.000000
vn 0.000000 1.000000 -0.000000
vn 0.000000 1.000000 -0.000000
vn 0.000000 1.000000 -0.000000
vn 0.000000 1.000000 -0.000000
vn 0.000000 1.000000 -0.000000
vn 0.000000 1.000000 -0.000000
vn 0.000000 1.000000 -0.000000
vn 0.000000 1.000000 -0.000000
vn 0.000000 1.000000 -0.000000
vn 0.000000 -1.000000 0.000000
vn 0.000000 -1.000000 0.000000
vn 0.000000 -1.000000 0.000000
vn 0.000000 -1.000000 0.000000
vn -0.381875 -0.053016 -0.922692
vn -0.381874 -0.053016 -0.922692
vn -0.921925 -0.063115 -0.382193
vn -0.921925 -0.063115 -0.382193
vn -0.381867 0.052915 0.922701
vn -0.382398 -0.005769 0.923980
vn -0.921915 0.063218 0.382199
vn -0.923648 -0.015791 0.382916
vn 0.892995 0.248548 -0.375212
vn 0.892995 0.248548 -0.375212
vn 0.369890 0.206458 -0.905846
vn 0.369890 0.206458 -0.905846
vn -0.369890 0.206458 -0.905846
vn -0.369890 0.206458 -0.905846
vn -0.892995 0.248548 -0.375212
vn -0.892995 0.248548 -0.375212
vn 0.381867 0.052915 -0.922701
vn 0.382398 -0.005770 -0.923980
vn 0.921915 0.063218 -0.382199
vn 0.923648 -0.015792 -0.382916
vn -0.892995 0.248548 0.375212
vn -0.892995 0.248548 0.375212
vn -0.369890 0.206458 0.905846
vn -0.369890 0.206458 0.905846
vn 0.369890 0.206458 0.905846
vn 0.369890 0.206458 0.905846
vn 0.892995 0.248548 0.375212
vn 0.892995 0.248548 0.375212
vn 0.381874 -0.053016 0.922693
vn 0.381874 -0.053016 0.922693
vn 0.921925 -0.063113 0.382191
vn 0.921925 -0.063113 0.382191
vn 0.921925 -0.063114 -0.382192
vn 0.921925 -0.063114 -0.382192
vn 0.381874 -0.053016 -0.922692
vn 0.381874 -0.053016 -0.922692
vn 0.376944 -0.168443 0.910791
vn 0.382398 -0.005769 0.923980
vn 0.898686 -0.231429 0.372565
vn 0.923648 -0.015791 0.382916
vn 0.921915 0.063218 0.382199
vn 0.381867 0.052915 0.922701
vn -0.898686 -0.231428 0.372565
vn -0.376944 -0.168443 0.910791
vn -0.921915 0.063218 -0.382199
vn -0.923648 -0.015791 -0.382916
vn -0.381867 0.052915 -0.922701
vn -0.382398 -0.005769 -0.923980
vn 0.376944 -0.168443 -0.910791
vn 0.898686 -0.231431 -0.372563
vn -0.921925 -0.063113 0.382191
vn -0.921925 -0.063113 0.382191
vn -0.381874 -0.053016 0.922693
vn -0.381874 -0.053016 0.922693
vn -0.898686 -0.231430 -0.372563
vn -0.376944 -0.168443 -0.910791
vn 0.000000 -1.000000 0.000000
vn 0.000000 -1.000000 0.000000
vn 0.000000 -1.000000 0.000000
vn 0.000000 -1.000000 0.000000
vn 0.000000 -1.000000 0.000000
vn 0.000000 -1.000000 0.000000
vn 0.000000 -1.000000 0.000000
vn 0.000000 -1.000000 0.000000
vn 0.000000 -1.000000 0.000000
vn 0.000000 -1.000000 0.000000
vn 0.000000 -1.000000 0.000000
vn 0.000000 -1.000000 0.000000
s 1
g pCube1
usemtl initialShadingGroup
f 1/33/1 3/68/2 5/69/3 4/34/4
s 2
f 3/68/5 2/1/6 6/35/7 5/69/8
f 9/27/9 8/71/10 11/72/11 10/28/12
s 3
f 8/71/13 7/2/14 12/43/15 11/72/16
s 4
f 15/3/17 14/73/18 17/74/19 16/22/20
f 14/73/18 13/15/21 18/23/22 17/74/19
f 21/37/23 20/75/24 23/76/25 22/16/26
f 20/75/24 19/17/27 24/24/28 23/76/25
f 27/4/29 26/78/30 29/79/31 28/18/32
f 26/78/30 25/19/33 30/25/34 29/79/31
f 33/39/35 32/80/36 35/82/37 34/20/38
f 32/80/36 31/21/39 36/26/40 35/82/37
s 3
f 50/29/41 49/88/42 53/90/43 52/30/44
s 8
f 49/87/45 51/5/46 54/41/47 53/89/48
f 56/32/49 55/91/50 59/94/51 58/31/52
s 1
f 55/92/53 57/6/54 60/47/55 59/93/56
s 9
f 61/7/57 64/36/58 67/8/59 70/38/60
s 10
f 73/9/61 76/40/62 79/10/63 82/42/64
s 11
f 66/11/65 81/44/66 78/12/67 69/46/68
s 12
f 84/13/69 63/48/70 72/14/71 75/50/72
s 4
f 13/15/21 21/37/23 22/16/26 18/23/22
f 19/17/27 27/4/29 28/18/32 24/24/28
f 25/19/33 33/39/35 34/20/38 30/25/34
f 31/21/39 15/3/17 16/22/20 36/26/40
s 13
f 18/23/73 22/16/74 41/59/75 39/58/76
s 14
f 24/24/77 28/18/78 44/61/79 40/60/80
s 15
f 30/25/81 34/20/82 47/63/83 43/62/84
s 16
f 36/26/85 16/22/86 37/57/87 46/64/88
s 2
f 6/35/7 2/1/6 9/27/9 10/28/12
s 3
f 12/43/15 7/2/14 50/29/41 52/30/44
s 8
f 58/31/52 54/41/47 51/5/46 56/32/49
s 1
f 60/47/55 57/6/54 1/33/1 4/34/4
s 17
f 6/35/89 10/28/90 64/36/91 61/7/92
s 9
f 21/37/93 13/15/94 70/38/60 67/8/59
s 10
f 33/39/95 25/19/96 76/40/62 73/9/61
s 18
f 54/41/97 58/31/98 82/42/99 79/10/100
s 19
f 12/43/101 52/30/102 81/44/103 66/11/104
s 11
f 27/45/105 19/65/106 69/46/68 78/12/67
s 20
f 60/47/107 4/34/108 63/48/109 84/13/110
s 12
f 15/49/111 31/66/112 75/50/72 72/14/71
s off
f 46/64/113 37/57/114 38/83/115 39/58/116 41/59/117 42/84/118 40/60/119 44/61/120 45/85/121 43/62/122 47/63/123 48/86/124
s 21
f 85/107/125 86/108/126 87/109/127 88/110/128
s 17
f 10/28/90 11/72/129 65/96/130 64/36/91
s 19
f 11/72/131 12/43/101 66/11/104 65/96/132
s 9
f 13/15/94 14/73/133 71/98/134 70/38/60
s 12
f 14/73/135 15/49/111 72/14/71 71/98/136
s 16
f 16/22/86 17/74/137 38/83/138 37/57/87
s 13
f 17/74/139 18/23/73 39/58/76 38/83/140
f 22/16/74 23/76/141 42/84/142 41/59/75
s 14
f 23/76/143 24/24/77 40/60/80 42/84/144
s 10
f 25/19/96 26/78/145 77/102/146 76/40/62
s 11
f 26/77/147 27/45/105 78/12/67 77/101/148
s 14
f 28/18/78 29/79/149 45/85/150 44/61/79
s 15
f 29/79/151 30/25/81 43/62/84 45/85/152
f 34/20/82 35/82/153 48/86/154 47/63/83
s 16
f 35/82/155 36/26/85 46/64/88 48/86/156
s 18
f 58/31/98 59/94/157 83/106/158 82/42/99
s 20
f 59/93/159 60/47/107 84/13/110 83/105/160
f 4/34/108 5/69/161 62/95/162 63/48/109
s 17
f 5/69/163 6/35/89 61/7/92 62/95/164
s 9
f 64/36/58 65/96/165 68/97/166 67/8/59
s 11
f 65/96/167 66/11/65 69/46/68 68/97/168
f 19/65/106 20/75/169 68/97/168 69/46/68
s 9
f 20/75/170 21/37/93 67/8/59 68/97/166
s 12
f 63/48/70 62/95/171 71/98/136 72/14/71
s 9
f 62/95/172 61/7/57 70/38/60 71/98/134
s 12
f 31/66/112 32/81/173 74/100/174 75/50/72
s 10
f 32/80/175 33/39/95 73/9/61 74/99/176
f 76/40/62 77/102/146 80/104/177 79/10/63
s 11
f 77/101/148 78/12/67 81/44/66 80/103/178
s 19
f 52/30/102 53/90/179 80/103/180 81/44/103
s 18
f 53/89/181 54/41/97 79/10/100 80/104/182
s 12
f 75/50/72 74/100/174 83/105/183 84/13/69
s 10
f 74/99/176 73/9/61 82/42/64 83/106/184
s 21
f 86/108/126 56/32/185 51/5/186 87/109/127
f 2/54/187 85/107/125 88/110/128 9/53/188
f 1/55/189 85/107/125 2/54/187 3/67/190
f 57/56/191 86/108/126 85/107/125 1/55/189
f 55/91/192 56/32/185 86/108/126 57/56/191
f 87/109/127 51/5/186 49/87/193 50/51/194
f 88/110/128 87/109/127 50/51/194 7/52/195
f 9/53/188 88/110/128 7/52/195 8/70/196
